<?xml version="1.0" encoding="iso-8859-1"?>
<!-- Generator: Adobe Illustrator 19.0.0, SVG Export Plug-In . SVG Version: 6.00 Build 0)  -->
<svg version="1.1" id="Capa_1" xmlns="http://www.w3.org/2000/svg" xmlns:xlink="http://www.w3.org/1999/xlink" x="0px" y="0px"
	 viewBox="0 0 401.765 401.765" style="enable-background:new 0 0 401.765 401.765;" xml:space="preserve"  fill="#ff3f1f">
<g>
	<g>
		<path d="M262.802,88.245h-4.56v-71.28C258.245,7.598,250.654,0.003,241.287,0c-0.135,0-0.27,0.002-0.405,0.005h-80
			c-9.364-0.221-17.134,7.191-17.355,16.555c-0.003,0.135-0.005,0.27-0.005,0.405v71.28h-4.56c-27.44,0-56.8,14.96-56.8,56.8v199.92
			c0,27.44,14.96,56.8,56.8,56.8h123.84c41.92,0,56.8-29.36,56.8-56.8v-200C319.602,103.125,290.242,88.245,262.802,88.245z
			 M159.522,16.965c-0.049-0.528,0.339-0.996,0.867-1.045c0.169-0.016,0.339,0.014,0.493,0.085h80c0.53,0,0.96,0.43,0.96,0.96v15.2
			h-82.32V16.965z M159.922,48.005h82.32v40h-82.72L159.922,48.005z M303.602,344.965c0,12.24-4,40.8-40.8,40.8h-123.84
			c-36.8,0-40.8-28.56-40.8-40.8v-200c0-36.8,28.56-40.8,40.8-40.8h123.84c12.24,0,40.8,4,40.8,40.8V344.965z"/>
	</g>
</g>
<g>
	<g>
		<path d="M200.882,142.885c-4.418,0-8,3.582-8,8v188.48c0,4.418,3.582,8,8,8s8-3.582,8-8v-188.48
			C208.882,146.467,205.301,142.885,200.882,142.885z"/>
	</g>
</g>
<g>
	<g>
		<path d="M164.242,159.285c-4.418,0-8,3.582-8,8v155.6c0,4.418,3.582,8,8,8s8-3.582,8-8v-155.6
			C172.242,162.867,168.661,159.285,164.242,159.285z"/>
	</g>
</g>
<g>
	<g>
		<path d="M126.082,178.005c-4.418,0-8,3.582-8,8v118.16c0,4.418,3.582,8,8,8c4.418,0,8-3.582,8-8v-118.16
			C134.082,181.587,130.501,178.005,126.082,178.005z"/>
	</g>
</g>
<g>
	<g>
		<path d="M237.522,159.285c-4.418,0-8,3.582-8,8v155.6c0,4.418,3.582,8,8,8s8-3.582,8-8v-155.6
			C245.522,162.867,241.941,159.285,237.522,159.285z"/>
	</g>
</g>
<g>
	<g>
		<path d="M275.682,178.005c-4.418,0-8,3.582-8,8v118.16c0,4.418,3.582,8,8,8s8-3.582,8-8v-118.16
			C283.682,181.587,280.101,178.005,275.682,178.005z"/>
	</g>
</g>
<g>
</g>
<g>
</g>
<g>
</g>
<g>
</g>
<g>
</g>
<g>
</g>
<g>
</g>
<g>
</g>
<g>
</g>
<g>
</g>
<g>
</g>
<g>
</g>
<g>
</g>
<g>
</g>
<g>
</g>
</svg>
