<svg fill="#ff3f1f" height="512pt" viewBox="-48 0 512 512.002" width="512pt" xmlns="http://www.w3.org/2000/svg"><path d="m227.890625 306c-5.519531 0-10 4.480469-10 10s4.480469 10 10 10 10-4.480469 10-10-4.480469-10-10-10zm0 0"/><path d="m227.890625 366c-5.519531 0-10 4.480469-10 10s4.480469 10 10 10 10-4.480469 10-10-4.480469-10-10-10zm0 0"/><path d="m227.890625 426c-5.519531 0-10 4.480469-10 10s4.480469 10 10 10 10-4.480469 10-10-4.480469-10-10-10zm0 0"/><path d="m413.714844 401.871094c1.570312-2.164063 2.210937-4.871094 1.769531-7.511719l-47.691406-286.878906c-3.667969-21.636719-15.96875-40.8125-33.972657-53.210938-2.3125-6.671875-6.921874-12.359375-13.101562-15.996093l-55.324219-32.609376c-5.125-3.695312-11.152343-5.664062-17.503906-5.664062h-80c-6.359375 0-12.386719 1.972656-17.503906 5.667969l-55.320313 32.605469c-6.1875 3.640624-10.800781 9.332031-13.105468 15.980468-18.003907 12.386719-30.3125 31.554688-34.003907 53.222656l-47.820312 286.878907c-.441407 2.640625.199219 5.347656 1.769531 7.515625 1.570312 2.167968 3.945312 3.613281 6.59375 4.015625l58.984375 8.960937-9.53125 86.054688c-.3125 2.824218.589844 5.652344 2.488281 7.769531 1.898438 2.117187 4.605469 3.332031 7.449219 3.332031h280c2.84375 0 5.554687-1.214844 7.449219-3.332031 1.898437-2.117187 2.804687-4.945313 2.488281-7.769531l-9.535156-86.074219 58.832031-8.9375c2.644531-.40625 5.019531-1.851563 6.589844-4.019531zm-101.15625-330.683594-31.738282 31.742188c-4.304687 4.300781-3.792968 11.421874 1.070313 15.070312l19.160156 14.367188c5.234375 3.925781 5.347657 11.707031.265625 15.800781-3.101562 2.304687-69.3125 51.46875-73.992187 54.945312l47.570312-143.695312c1.894531-4.828125 2.996094-10.269531 2.996094-15.878907v-7.292968l32.675781 19.261718c5.5 3.238282 6.71875 10.957032 1.992188 15.679688zm-144.667969-51.1875h80c5.308594 0 10 4.320312 10 10v10h-100v-10c0-5.679688 4.703125-10 10-10zm85.742187 40-45.742187 138.179688-45.742187-138.179688zm-148.414062-4.496094 32.671875-19.257812v7.292968c0 5.566407 1.085937 11.015626 3 15.878907l47.566406 143.695312-73.992187-54.941406c-5.078125-4.089844-4.96875-11.875.265625-15.800781l19.160156-14.371094c4.871094-3.652344 5.367187-10.773438 1.070313-15.070312l-31.738282-31.742188c-4.628906-4.628906-3.648437-12.359375 1.996094-15.683594zm-83.6875 332.132813 3.335938-20.011719 47.050781 7.089844c-.03125.222656-.046875.445312-.0625.671875l-2.167969 19.5625zm69.273438-1.636719h57.085937c5.523437 0 10-4.476562 10-10s-4.476563-10-10-10h-54.871094l14.808594-133.6875c.609375-5.492188-3.347656-10.433594-8.835937-11.042969-5.492188-.601562-10.433594 3.351563-11.039063 8.839844l-13.816406 124.710937-45.980469-6.925781 39.523438-237.09375c2.085937-12.25 7.855468-23.4375 16.347656-32.207031 1.347656 2.441406 3.03125 4.714844 5.050781 6.738281l23.589844 23.585938-9.9375 7.453125c-15.769531 11.824218-16.054688 35.378906-.542969 47.585937.074219.058594 89.722656 66.632813 89.722656 66.632813-8.878906 9.246094-14.019531 21.714844-14.019531 34.679687v226.730469h-98.832031zm107.085937 106v-226.730469c0-9.414062 4.511719-18.40625 12.0625-24.046875 1.191406-.886718-13.132813 9.789063 103.417969-77.09375.074218-.054687.148437-.113281.222656-.167968 15.488281-12.191407 15.25-35.746094-.542969-47.589844l-9.9375-7.453125 23.589844-23.585938c2.015625-2.015625 3.695313-4.289062 5.039063-6.722656 8.488281 8.773437 14.25 19.957031 16.324218 32.179687l39.414063 237.082032-45.835938 6.917968-13.816406-124.679687c-.605469-5.492187-5.554687-9.449219-11.039063-8.839844-5.488281.609375-9.445312 5.550781-8.835937 11.042969l14.808594 133.6875h-54.871094c-5.523437 0-10 4.476562-10 10s4.476563 10 10 10h57.089844l11.742187 106zm148.199219-97.070312s-2.199219-20.015626-2.230469-20.246094l46.902344-7.078125 3.332031 20.03125zm0 0"/></svg>