<?xml version="1.0" encoding="iso-8859-1"?>
<!-- Generator: Adobe Illustrator 19.0.0, SVG Export Plug-In . SVG Version: 6.00 Build 0)  -->
<svg fill="#ff3f1f" version="1.1" id="Capa_1" xmlns="http://www.w3.org/2000/svg" xmlns:xlink="http://www.w3.org/1999/xlink" x="0px" y="0px"
	 viewBox="0 0 512 512" style="enable-background:new 0 0 512 512;" xml:space="preserve">
<g>
	<g>
		<path d="M441.087,127.345H321.759V97.211c0-22.583-18.373-40.956-40.958-40.956h-49.598c-22.583,0-40.957,18.373-40.957,40.956
			v30.134H70.913C31.811,127.345,0,159.156,0,198.257v186.576c0,39.101,31.811,70.913,70.913,70.913h370.175
			c39.101,0,70.913-31.811,70.913-70.913V198.257C512,159.156,480.189,127.345,441.087,127.345z M231.205,86.549h49.598
			c5.878,0,10.662,4.783,10.662,10.661v30.134h-70.921V97.21h-0.001C220.543,91.331,225.326,86.549,231.205,86.549z M112.627,425.45
			H70.913c-22.396,0-40.617-18.221-40.617-40.617V198.257c0-22.396,18.221-40.617,40.617-40.617h41.714V425.45z M369.085,425.45
			H142.921V157.64h226.164V425.45z M481.704,384.833c0,22.396-18.221,40.617-40.617,40.617H399.38V157.64h41.707
			c22.396,0,40.617,18.221,40.617,40.617V384.833z"/>
	</g>
</g>
<g>
</g>
<g>
</g>
<g>
</g>
<g>
</g>
<g>
</g>
<g>
</g>
<g>
</g>
<g>
</g>
<g>
</g>
<g>
</g>
<g>
</g>
<g>
</g>
<g>
</g>
<g>
</g>
<g>
</g>
</svg>
