<?xml version="1.0" encoding="utf-8"?>
<!-- Generator: Adobe Illustrator 18.0.0, SVG Export Plug-In . SVG Version: 6.00 Build 0)  -->
<!DOCTYPE svg PUBLIC "-//W3C//DTD SVG 1.1//EN" "http://www.w3.org/Graphics/SVG/1.1/DTD/svg11.dtd">
<svg version="1.1" id="Layer_1" xmlns="http://www.w3.org/2000/svg" xmlns:xlink="http://www.w3.org/1999/xlink" x="0px" y="0px"
	 width="1400px" height="1400px" viewBox="0 0 1400 1400" enable-background="new 0 0 1400 1400" xml:space="preserve">
<g>
	<circle fill="#6EA7F1" cx="679.1" cy="767.2" r="477.7"/>
	<g>
		<defs>
			<path id="SVGID_1_" d="M1132.6,228.2l-91.4,19.9l26.7,241.7c-61-85.3-149.3-149.7-252.2-180.3L768.3,94.8L659.8,14.2L544.1,308.8
				C346,367.1,201.4,550.2,201.4,767.2c0,263.8,213.9,477.7,477.7,477.7s477.7-213.9,477.7-477.7c0-48.7-7.3-95.6-20.8-139.8
				l46-43.8L1132.6,228.2z"/>
		</defs>
		<clipPath id="SVGID_2_">
			<use xlink:href="#SVGID_1_"  overflow="visible"/>
		</clipPath>
		<g clip-path="url(#SVGID_2_)">
			<linearGradient id="SVGID_3_" gradientUnits="userSpaceOnUse" x1="847.2279" y1="791.177" x2="437.9353" y2="701.3323">
				<stop  offset="0" style="stop-color:#6EA7F1"/>
				<stop  offset="0.3009" style="stop-color:#7FB1F1"/>
				<stop  offset="0.6391" style="stop-color:#8AB7F1"/>
				<stop  offset="1" style="stop-color:#8EB9F1"/>
			</linearGradient>
			<path fill="url(#SVGID_3_)" d="M1119.1,641.3c0,0-39.4-17.5-109.4-43.8c-70-26.3-154.6-56.9-166.3-59.8
				c-11.7-2.9-59.8,0-71.5-4.4s-75.8-35-86-42.3c-10.2-7.3-83.1-51-96.3-58.3l-23.3-8.8c0,0-8.8,0-16,0c-7.3,0-10.2,0-19,0
				s-24.8,7.3-33.5,11.7c-8.8,4.4-56.9,27.7-74.4,36.5c-17.5,8.8-27.7,19-27.7,19s-21.9,11.7-37.9,18.4c-16,6.7-35,3.5-46.7,0.6
				c-11.7-2.9-27.7,6.5-27.7,6.5s-46.7,27.1-62.7,34.4S136.1,583,136.1,583v83.1l-27.6,19.8v248.7h1073.3V666.1L1119.1,641.3z"/>
			<g>
				<path fill="#FFFFFF" d="M460.1,544.3L460.1,544.3c0-7.6-6.2-13.7-13.7-13.7H223.1c-7.6,0-13.7,6.2-13.7,13.7l0,0
					c0,7.6,6.2,13.7,13.7,13.7h36.6c7.6,0,13.7,6.2,13.7,13.7v0c0,7.6-6.2,13.7-13.7,13.7h-62.8c-7.6,0-13.7,6.2-13.7,13.7v0
					c0,7.6,6.2,13.7,13.7,13.7h223.2c7.6,0,13.7-6.2,13.7-13.7v0c0-7.6,6.2-13.7,13.7-13.7h62.8c7.6,0,13.7-6.2,13.7-13.7v0
					c0-7.6-6.2-13.7-13.7-13.7h-36.6C466.3,558.1,460.1,551.9,460.1,544.3z"/>
				<path fill="#FFFFFF" d="M570.2,585.6h-20.7c-7.6,0-13.7-6.2-13.7-13.7v0c0-7.6,6.2-13.7,13.7-13.7h20.7
					c7.6,0,13.7,6.2,13.7,13.7v0C584,579.4,577.8,585.6,570.2,585.6z"/>
				<path fill="#FFFFFF" d="M1015.7,403.5L1015.7,403.5c0-7.6-6.2-13.7-13.7-13.7H817.5c-7.6,0-13.7,6.2-13.7,13.7v0
					c0,7.6,6.2,13.7,13.7,13.7h16.2c7.6,0,13.7,6.2,13.7,13.7v0c0,7.6,6.2,13.7,13.7,13.7h184.5c7.6,0,13.7-6.2,13.7-13.7v0
					c0-7.6-6.2-13.7-13.7-13.7h-16.2C1021.8,417.2,1015.7,411.1,1015.7,403.5z"/>
			</g>
			<g>
				<polygon fill="#3D3DC1" points="713.2,547.9 678.4,547.9 643.6,547.9 637.8,1224.5 678.4,1224.5 719,1224.5 				"/>
				<polygon fill="#3D3DC1" points="677.9,104.7 669.7,104.7 672.8,228.7 677.9,228.7 683,228.7 686.1,104.7 				"/>
				<rect x="674.6" y="97.7" fill="#3D3DC1" width="6.6" height="227.4"/>
				<rect x="668.7" y="97.5" fill="#3D3DC1" width="18.4" height="7.3"/>
				<rect x="668.7" y="128.6" fill="#3D3DC1" width="18.4" height="7.3"/>
				<rect x="668.7" y="159.8" fill="#3D3DC1" width="18.4" height="7.3"/>
				<rect x="668.7" y="110.5" fill="#3D3DC1" width="18.4" height="7.3"/>
				<rect x="659" y="388.3" fill="#3D3DC1" width="38.9" height="89.7"/>
				<rect x="655.8" y="395.3" fill="#3D3DC1" width="45.2" height="9.5"/>
				<rect x="655.8" y="383.5" fill="#3D3DC1" width="45.2" height="4.7"/>
				<rect x="656.6" y="361.4" fill="#3D3DC1" width="43.6" height="4.6"/>
				<rect x="662.7" y="328.6" fill="#3D3DC1" width="31.5" height="32.9"/>
				<rect x="658.4" y="323.1" fill="#3D3DC1" width="39.1" height="5.9"/>
				<polygon fill="#3D3DC1" points="701,383.5 655.8,383.5 652.6,372.4 704.2,372.4 				"/>
				<rect x="646.6" y="366" fill="#3D3DC1" width="63.6" height="6.5"/>
				<rect x="632.2" y="538.7" fill="#3D3DC1" width="92.2" height="14.9"/>
				<polygon fill="#3D3DC1" points="632.2,538.7 724.4,538.7 730.2,516.3 626.5,516.3 				"/>
				<polygon fill="#3D3DC1" points="634.6,505.3 722.1,505.3 727.6,484 629.1,484 				"/>
				<rect x="617" y="505.3" fill="#3D3DC1" width="124.1" height="11"/>
				<rect x="617" y="472.9" fill="#3D3DC1" width="124.1" height="11"/>
				<rect x="637.8" y="464.7" fill="#3D3DC1" width="82.5" height="8.3"/>
				<rect x="649" y="557.2" fill="#3D3DC1" width="58.9" height="3.8"/>
				<rect x="649" y="568.8" fill="#3D3DC1" width="58.9" height="3.8"/>
				<rect x="649" y="580.5" fill="#3D3DC1" width="58.9" height="3.8"/>
				<rect x="649" y="592.1" fill="#3D3DC1" width="58.9" height="3.8"/>
				<rect x="632.6" y="702.1" fill="#3D3DC1" width="91.7" height="16.4"/>
			</g>
			<g>
				<polygon fill="#3D3DC1" points="1128.7,769.4 1060.3,769.4 1045.6,728.7 1143.5,728.7 				"/>
				<rect x="1070.7" y="498.8" fill="#3D3DC1" width="47.6" height="66.2"/>
				<rect x="1081.9" y="484.1" fill="#3D3DC1" width="25.3" height="37.2"/>
				<rect x="1087" y="466.9" fill="#3D3DC1" width="15.2" height="22.2"/>
				<rect x="1092.1" y="413.9" fill="#3D3DC1" width="4.8" height="57.1"/>
				<rect x="1081.9" y="761.3" fill="#3D3DC1" width="25.3" height="220.7"/>
				<rect x="1088.1" y="536.1" fill="#3D3DC1" width="12.8" height="208.4"/>
				<g>
					
						<rect x="1069.2" y="569.7" transform="matrix(0.5528 0.8333 -0.8333 0.5528 959.6661 -645.6408)" fill="#3D3DC1" width="24.4" height="3.1"/>
				</g>
				<g>
					
						<rect x="1069.2" y="590.1" transform="matrix(0.5528 0.8333 -0.8333 0.5528 976.6336 -636.5351)" fill="#3D3DC1" width="24.4" height="3.1"/>
				</g>
				<g>
					
						<rect x="1069.2" y="610.5" transform="matrix(0.5528 0.8333 -0.8333 0.5528 993.6011 -627.4294)" fill="#3D3DC1" width="24.4" height="3.1"/>
				</g>
				<g>
					
						<rect x="1069.2" y="630.8" transform="matrix(0.5528 0.8333 -0.8333 0.5528 1010.5685 -618.3237)" fill="#3D3DC1" width="24.4" height="3.1"/>
				</g>
				<g>
					
						<rect x="1069.2" y="651.2" transform="matrix(0.5528 0.8333 -0.8333 0.5528 1027.536 -609.218)" fill="#3D3DC1" width="24.4" height="3.1"/>
				</g>
				<g>
					
						<rect x="1067.4" y="669.1" transform="matrix(0.5528 0.8333 -0.8333 0.5528 1041.6912 -599.7895)" fill="#3D3DC1" width="24.4" height="3.1"/>
				</g>
				<g>
					
						<rect x="1064.5" y="688.2" transform="matrix(0.5508 0.8346 -0.8346 0.5508 1060.1547 -590.423)" fill="#3D3DC1" width="28.3" height="3.1"/>
				</g>
				<g>
					
						<rect x="1064.6" y="708.2" transform="matrix(0.5516 0.8341 -0.8341 0.5516 1075.7794 -581.4594)" fill="#3D3DC1" width="28.1" height="3.1"/>
				</g>
				<g>
					
						<rect x="1077.1" y="702.9" transform="matrix(0.834 0.5518 -0.5518 0.834 574.6521 -476.1591)" fill="#3D3DC1" width="3.1" height="28.1"/>
				</g>
				<g>
					
						<rect x="1077.1" y="681.2" transform="matrix(0.834 0.5518 -0.5518 0.834 562.6732 -479.7631)" fill="#3D3DC1" width="3.1" height="28.1"/>
				</g>
				<g>
					
						<rect x="1077.1" y="659.5" transform="matrix(0.834 0.5518 -0.5518 0.834 550.6942 -483.367)" fill="#3D3DC1" width="3.1" height="28.1"/>
				</g>
				<g>
					
						<rect x="1077.1" y="637.8" transform="matrix(0.834 0.5518 -0.5518 0.834 538.7155 -486.9708)" fill="#3D3DC1" width="3.1" height="28.1"/>
				</g>
				<g>
					
						<rect x="1077.1" y="616.1" transform="matrix(0.834 0.5518 -0.5518 0.834 526.7363 -490.5748)" fill="#3D3DC1" width="3.1" height="28.1"/>
				</g>
				<g>
					
						<rect x="1077.1" y="594.4" transform="matrix(0.834 0.5518 -0.5518 0.834 514.7575 -494.1787)" fill="#3D3DC1" width="3.1" height="28.1"/>
				</g>
				<g>
					
						<rect x="1078.1" y="571.6" transform="matrix(0.834 0.5518 -0.5518 0.834 502.3716 -498.5043)" fill="#3D3DC1" width="3.1" height="28.1"/>
				</g>
				<g>
					<path fill="#3D3DC1" d="M1216.4,988h-35.6l-1.2-1.7c-0.3-0.5-33.1-47.7-85.2-58.3c-52.1,10.6-84.8,57.9-85.2,58.3l-1.2,1.7
						h-35.6l4-6c0.7-1,67-101.6,84.2-219l15-251.7l7.7,0.5l-15,252l0,0.2c-15,102.7-67,192.6-81.6,216.3h17.2
						c6.6-9,39.1-50.1,89.6-60l0.7-0.1l0.7,0.1c50.5,9.9,83,51,89.6,60h17.2c-14.6-23.6-66.6-113.6-81.6-216.3l0-0.3l-15-251.9
						l7.7-0.5l15,251.7c17.2,117.4,83.5,218,84.2,219L1216.4,988z"/>
				</g>
				<path fill="#3D3DC1" d="M1081.9,907.2v-6l-0.9,0.9l-9.2-8.6l9.2-8.6l0.9,0.9v-6l-0.9,0.9l-9.2-8.6l9.2-8.6l0.9,0.9v-6l-0.9,0.9
					l-9.2-8.6l9.2-8.6l0.9,0.9v-6l-0.9,0.9l-9.2-8.6l9.2-8.6l0.9,0.9v-6l-0.9,0.9l-9.2-8.6l9.2-8.6l0.9,0.9v-6l-0.9,0.9l-9.2-8.6
					l10.1-9.5v-4.3l-12.4,11.6l-3.7-3.5c-0.2,1.2-0.5,2.4-0.7,3.6l2.1,2l-3.1,2.9c-0.4,1.8-0.7,3.6-1.1,5.3l6.5-6.1l9.2,8.6
					l-9.2,8.6l-7.4-7c-0.3,1.2-0.5,2.3-0.8,3.5l6,5.6l-9.2,8.6l-0.3-0.3c-0.6,2.2-1.2,4.3-1.7,6.4l2-1.9l9.2,8.6l-9.2,8.6l-5.1-4.8
					c-0.3,1.1-0.7,2.2-1,3.3l3.8,3.6l-7.1,6.6c-0.7,2.1-1.4,4.2-2.1,6.2l9.1,8.6l-9.2,8.6l-4.6-4.3c-0.4,1.1-0.8,2.1-1.2,3.2
					l3.5,3.2l-7.3,6.9c-0.9,2.3-1.8,4.6-2.7,6.8l0.9-0.8l9.2,8.6l-9.2,8.6l-5.5-5.2c-0.4,1-0.9,2-1.3,3l4.6,4.3l-9.2,8.6l-0.8-0.8
					c-1.6,3.5-3.2,7-4.8,10.3l5.6-5.3l9.2,8.6l-9.2,8.6l-7.8-7.3c-0.5,1-1,2-1.4,2.9l7,6.6l-9.2,8.6l-3.7-3.5c-0.5,1-1,1.9-1.5,2.9
					l2.9,2.7l-8.8,8.3c-1.7,3.2-3.4,6.2-5,8.9l4.6-4.3l9.2,8.6l-9.2,8.6l-7.8-7.3c-0.6,1-1.1,1.9-1.6,2.7l7.1,6.7l-0.9,0.9h6.4
					l-0.9-0.9l6.3-5.9c6.2-7.4,16.7-18.6,30.8-29l6.3-5.9l1,0.9c0.9-0.6,1.8-1.1,2.7-1.7l-1.4-1.3l9.2-8.6l3.7,3.5c1-0.5,2-1,3-1.5
					l-4.4-4.2l9.2-8.6l8,7.6c1.1-0.4,2.2-0.8,3.3-1.1l-9.1-8.6l9.2-8.6L1081.9,907.2z M1078.7,882.7l-9.2,8.6l-9.2-8.6l9.2-8.6
					L1078.7,882.7z M1067.2,893.5l-9.2,8.6l-9.2-8.6l9.2-8.6L1067.2,893.5z M1078.7,861.3l-9.2,8.6l-9.2-8.6l9.2-8.6L1078.7,861.3z
					 M1060.3,818.3l9.2-8.6l9.2,8.6l-9.2,8.6L1060.3,818.3z M1069.5,831.2l9.2,8.6l-9.2,8.6l-9.2-8.6L1069.5,831.2z M1048.9,850.5
					l9.2-8.6l9.2,8.6l-9.2,8.6L1048.9,850.5z M1058.1,863.4l9.2,8.6l-9.2,8.6l-9.2-8.6L1058.1,863.4z M1037.5,882.7l9.2-8.6l9.2,8.6
					l-9.2,8.6L1037.5,882.7z M1046.6,895.6l9.2,8.6l-9.2,8.6l-9.2-8.6L1046.6,895.6z M1026.1,914.9l9.2-8.6l9.2,8.6l-9.2,8.6
					L1026.1,914.9z M1012.4,966.5l-9.2-8.6l9.2-8.6l9.2,8.6L1012.4,966.5z M1023.8,955.7l-9.2-8.6l9.2-8.6l9.2,8.6L1023.8,955.7z
					 M1035.2,945l-9.2-8.6l9.2-8.6l9.2,8.6L1035.2,945z M1046.6,934.3l-9.2-8.6l9.2-8.6l9.2,8.6L1046.6,934.3z M1058.1,923.5
					l-9.2-8.6l9.2-8.6l9.2,8.6L1058.1,923.5z M1069.5,912.8l-9.2-8.6l9.2-8.6l9.2,8.6L1069.5,912.8z"/>
				<polygon fill="#3D3DC1" points="1060.3,769.4 1128.7,769.4 1143.5,728.7 1045.6,728.7 				"/>
				<rect x="1070.7" y="498.8" fill="#3D3DC1" width="47.6" height="66.2"/>
				<g>
					
						<rect x="1095.5" y="569.7" transform="matrix(-0.5528 0.8333 -0.8333 -0.5528 2196.094 -35.9585)" fill="#3D3DC1" width="24.4" height="3.1"/>
				</g>
				<g>
					
						<rect x="1095.5" y="590.1" transform="matrix(-0.5528 0.8333 -0.8333 -0.5528 2213.0615 -4.3414)" fill="#3D3DC1" width="24.4" height="3.1"/>
				</g>
				<g>
					
						<rect x="1095.5" y="610.5" transform="matrix(-0.5528 0.8333 -0.8333 -0.5528 2230.0291 27.2755)" fill="#3D3DC1" width="24.4" height="3.1"/>
				</g>
				<g>
					
						<rect x="1095.5" y="630.8" transform="matrix(-0.5528 0.8333 -0.8333 -0.5528 2246.9963 58.8925)" fill="#3D3DC1" width="24.4" height="3.1"/>
				</g>
				<g>
					
						<rect x="1095.5" y="651.2" transform="matrix(-0.5528 0.8333 -0.8333 -0.5528 2263.9639 90.5095)" fill="#3D3DC1" width="24.4" height="3.1"/>
				</g>
				<g>
					
						<rect x="1097.2" y="669.1" transform="matrix(-0.5528 0.8333 -0.8333 -0.5528 2281.5327 116.886)" fill="#3D3DC1" width="24.4" height="3.1"/>
				</g>
				<g>
					
						<rect x="1096.3" y="688.2" transform="matrix(-0.5508 0.8346 -0.8346 -0.5508 2297.7935 142.9046)" fill="#3D3DC1" width="28.3" height="3.1"/>
				</g>
				<g>
					
						<rect x="1096.3" y="708.2" transform="matrix(-0.5516 0.8341 -0.8341 -0.5516 2314.9084 175.0544)" fill="#3D3DC1" width="28.1" height="3.1"/>
				</g>
				<g>
					
						<rect x="1108.8" y="702.9" transform="matrix(-0.834 0.5518 -0.5518 -0.834 2432.0601 702.2094)" fill="#3D3DC1" width="3.1" height="28.1"/>
				</g>
				<g>
					
						<rect x="1108.8" y="681.2" transform="matrix(-0.834 0.5518 -0.5518 -0.834 2420.0811 662.3931)" fill="#3D3DC1" width="3.1" height="28.1"/>
				</g>
				<g>
					
						<rect x="1108.8" y="659.5" transform="matrix(-0.834 0.5518 -0.5518 -0.834 2408.1023 622.5767)" fill="#3D3DC1" width="3.1" height="28.1"/>
				</g>
				<g>
					
						<rect x="1108.8" y="637.8" transform="matrix(-0.834 0.5518 -0.5518 -0.834 2396.1235 582.761)" fill="#3D3DC1" width="3.1" height="28.1"/>
				</g>
				<g>
					
						<rect x="1108.8" y="616.1" transform="matrix(-0.834 0.5518 -0.5518 -0.834 2384.1443 542.9438)" fill="#3D3DC1" width="3.1" height="28.1"/>
				</g>
				<g>
					
						<rect x="1108.8" y="594.4" transform="matrix(-0.834 0.5518 -0.5518 -0.834 2372.1655 503.1281)" fill="#3D3DC1" width="3.1" height="28.1"/>
				</g>
				<g>
					
						<rect x="1107.9" y="571.6" transform="matrix(-0.834 0.5518 -0.5518 -0.834 2357.7876 461.9589)" fill="#3D3DC1" width="3.1" height="28.1"/>
				</g>
				<path fill="#3D3DC1" d="M1108.1,906.3l9.2,8.6l-9.1,8.6c1.1,0.4,2.2,0.7,3.3,1.1l8-7.6l9.2,8.6l-4.4,4.2c1,0.5,2,1,3,1.5
					l3.7-3.5l9.2,8.6l-1.4,1.3c0.9,0.6,1.8,1.1,2.7,1.7l1-0.9l6.3,5.9c14.2,10.4,24.6,21.5,30.8,29l6.3,5.9l-0.9,0.9h6.4l-0.9-0.9
					l7.1-6.7c-0.5-0.9-1.1-1.8-1.6-2.7l-7.8,7.3l-9.2-8.6l9.2-8.6l4.6,4.3c-1.6-2.7-3.2-5.7-5-8.9l-8.8-8.3l2.9-2.7
					c-0.5-0.9-1-1.9-1.5-2.9l-3.7,3.5l-9.2-8.6l7-6.6c-0.5-1-0.9-1.9-1.4-2.9l-7.8,7.3l-9.2-8.6l9.2-8.6l5.6,5.3
					c-1.6-3.3-3.2-6.8-4.8-10.3l-0.8,0.8l-9.2-8.6l4.6-4.3c-0.4-1-0.9-2-1.3-3l-5.5,5.2l-9.2-8.6l9.2-8.6l0.9,0.8
					c-0.9-2.2-1.8-4.5-2.7-6.8l-7.3-6.9l3.5-3.2c-0.4-1-0.8-2.1-1.2-3.2l-4.6,4.3l-9.2-8.6l9.1-8.6c-0.7-2.1-1.4-4.1-2.1-6.2
					l-7.1-6.6l3.8-3.6c-0.3-1.1-0.7-2.2-1-3.3l-5.1,4.8l-9.2-8.6l9.2-8.6l2,1.9c-0.6-2.1-1.2-4.3-1.7-6.4l-0.3,0.3l-9.2-8.6l6-5.6
					c-0.3-1.2-0.5-2.3-0.8-3.5l-7.4,7l-9.2-8.6l9.2-8.6l6.5,6.1c-0.4-1.8-0.8-3.5-1.1-5.3l-3.1-2.9l2.1-2c-0.2-1.2-0.5-2.4-0.7-3.6
					l-3.7,3.5l-12.4-11.6v4.3l10.1,9.5l-9.2,8.6l-0.9-0.9v6l0.9-0.9l9.2,8.6l-9.2,8.6l-0.9-0.9v6l0.9-0.9l9.2,8.6l-9.2,8.6l-0.9-0.9
					v6l0.9-0.9l9.2,8.6l-9.2,8.6l-0.9-0.9v6l0.9-0.9l9.2,8.6l-9.2,8.6l-0.9-0.9v6l0.9-0.9l9.2,8.6l-9.2,8.6l-0.9-0.9v6L1108.1,906.3
					z M1119.6,874.1l9.2,8.6l-9.2,8.6l-9.2-8.6L1119.6,874.1z M1131,884.9l9.2,8.6l-9.2,8.6l-9.2-8.6L1131,884.9z M1119.6,852.7
					l9.2,8.6l-9.2,8.6l-9.2-8.6L1119.6,852.7z M1119.6,826.9l-9.2-8.6l9.2-8.6l9.2,8.6L1119.6,826.9z M1128.7,839.8l-9.2,8.6
					l-9.2-8.6l9.2-8.6L1128.7,839.8z M1131,859.1l-9.2-8.6l9.2-8.6l9.2,8.6L1131,859.1z M1140.2,872l-9.2,8.6l-9.2-8.6l9.2-8.6
					L1140.2,872z M1142.4,891.3l-9.2-8.6l9.2-8.6l9.2,8.6L1142.4,891.3z M1151.6,904.2l-9.2,8.6l-9.2-8.6l9.2-8.6L1151.6,904.2z
					 M1153.8,923.5l-9.2-8.6l9.2-8.6l9.2,8.6L1153.8,923.5z M1167.5,957.9l9.2-8.6l9.2,8.6l-9.2,8.6L1167.5,957.9z M1156.1,947.1
					l9.2-8.6l9.2,8.6l-9.2,8.6L1156.1,947.1z M1144.7,936.4l9.2-8.6l9.2,8.6l-9.2,8.6L1144.7,936.4z M1133.3,925.7l9.2-8.6l9.2,8.6
					l-9.2,8.6L1133.3,925.7z M1121.8,914.9l9.2-8.6l9.2,8.6l-9.2,8.6L1121.8,914.9z M1110.4,904.2l9.2-8.6l9.2,8.6l-9.2,8.6
					L1110.4,904.2z"/>
			</g>
			<g>
				<rect x="771.9" y="605.1" fill="#A9FFFF" width="211.3" height="7.5"/>
				<rect x="780.7" y="612.6" fill="#514CCA" width="111" height="552.1"/>
				<rect x="791.2" y="625.6" fill="#A9FFFF" width="16" height="517.9"/>
				<rect x="891.6" y="612.6" fill="#3D3DC1" width="85.1" height="552.1"/>
				<rect x="792" y="583.5" fill="#514CCA" width="108.4" height="21.6"/>
				<rect x="900.5" y="583.5" fill="#3D3DC1" width="60.2" height="21.6"/>
				<polygon fill="#82F4F1" points="792.4,627.2 807.1,627.2 807.1,625.6 791.2,625.6 791.2,1143.5 792.4,1143.5 				"/>
				<rect x="815.3" y="625.6" fill="#A9FFFF" width="16" height="517.9"/>
				<polygon fill="#82F4F1" points="816.5,627.2 831.3,627.2 831.3,625.6 815.3,625.6 815.3,1143.5 816.5,1143.5 				"/>
				<rect x="839.5" y="625.6" fill="#A9FFFF" width="16" height="517.9"/>
				<polygon fill="#82F4F1" points="840.7,627.2 855.5,627.2 855.5,625.6 839.5,625.6 839.5,1143.5 840.7,1143.5 				"/>
				<rect x="863.7" y="625.6" fill="#A9FFFF" width="16" height="517.9"/>
				<polygon fill="#82F4F1" points="864.9,627.2 879.7,627.2 879.7,625.6 863.7,625.6 863.7,1143.5 864.9,1143.5 				"/>
			</g>
			<g>
				<rect x="274.3" y="538.5" fill="#3D3DC1" width="80" height="546.6"/>
				<rect x="432.4" y="538.5" fill="#3D3DC1" width="80" height="546.6"/>
				<polygon fill="#514CCA" points="392.3,538.5 392.3,681.7 314.3,681.7 314.3,538.5 234.3,538.5 234.3,1085.1 314.3,1085.1 
					392.3,1085.1 472.4,1085.1 472.4,538.5 				"/>
				<g>
					<rect x="319.5" y="700.2" fill="#A9FFFF" width="15.6" height="15.6"/>
					<rect x="319.5" y="700.2" fill="#82F4F1" width="2.6" height="15.6"/>
				</g>
				<g>
					<rect x="346.6" y="700.2" fill="#A9FFFF" width="15.6" height="15.6"/>
					<rect x="346.6" y="700.2" fill="#82F4F1" width="2.6" height="15.6"/>
				</g>
				<g>
					<rect x="373.6" y="700.2" fill="#A9FFFF" width="15.6" height="15.6"/>
					<rect x="373.6" y="700.2" fill="#82F4F1" width="2.6" height="15.6"/>
				</g>
				<g>
					<rect x="319.5" y="725.9" fill="#A9FFFF" width="15.6" height="15.6"/>
					<rect x="319.5" y="725.9" fill="#82F4F1" width="2.6" height="15.6"/>
				</g>
				<g>
					<rect x="346.6" y="725.9" fill="#A9FFFF" width="15.6" height="15.6"/>
					<rect x="346.6" y="725.9" fill="#82F4F1" width="2.6" height="15.6"/>
				</g>
				<g>
					<rect x="373.6" y="725.9" fill="#A9FFFF" width="15.6" height="15.6"/>
					<rect x="373.6" y="725.9" fill="#82F4F1" width="2.6" height="15.6"/>
				</g>
				<g>
					<rect x="319.5" y="751.6" fill="#A9FFFF" width="15.6" height="15.6"/>
					<rect x="319.5" y="751.6" fill="#82F4F1" width="2.6" height="15.6"/>
				</g>
				<g>
					<rect x="346.6" y="751.6" fill="#A9FFFF" width="15.6" height="15.6"/>
					<rect x="346.6" y="751.6" fill="#82F4F1" width="2.6" height="15.6"/>
				</g>
				<g>
					<rect x="373.6" y="751.6" fill="#A9FFFF" width="15.6" height="15.6"/>
					<rect x="373.6" y="751.6" fill="#82F4F1" width="2.6" height="15.6"/>
				</g>
				<g>
					<rect x="319.5" y="777.3" fill="#A9FFFF" width="15.6" height="15.6"/>
					<rect x="319.5" y="777.3" fill="#82F4F1" width="2.6" height="15.6"/>
				</g>
				<g>
					<rect x="346.6" y="777.3" fill="#A9FFFF" width="15.6" height="15.6"/>
					<rect x="346.6" y="777.3" fill="#82F4F1" width="2.6" height="15.6"/>
				</g>
				<g>
					<rect x="373.6" y="777.3" fill="#A9FFFF" width="15.6" height="15.6"/>
					<rect x="373.6" y="777.3" fill="#82F4F1" width="2.6" height="15.6"/>
				</g>
				<g>
					<rect x="319.5" y="803.1" fill="#A9FFFF" width="15.6" height="15.6"/>
					<rect x="319.5" y="803.1" fill="#82F4F1" width="2.6" height="15.6"/>
				</g>
				<g>
					<rect x="346.6" y="803.1" fill="#A9FFFF" width="15.6" height="15.6"/>
					<rect x="346.6" y="803.1" fill="#82F4F1" width="2.6" height="15.6"/>
				</g>
				<g>
					<rect x="373.6" y="803.1" fill="#A9FFFF" width="15.6" height="15.6"/>
					<rect x="373.6" y="803.1" fill="#82F4F1" width="2.6" height="15.6"/>
				</g>
				<g>
					<rect x="319.5" y="828.8" fill="#A9FFFF" width="15.6" height="15.6"/>
					<rect x="319.5" y="828.8" fill="#82F4F1" width="2.6" height="15.6"/>
				</g>
				<g>
					<rect x="346.6" y="828.8" fill="#A9FFFF" width="15.6" height="15.6"/>
					<rect x="346.6" y="828.8" fill="#82F4F1" width="2.6" height="15.6"/>
				</g>
				<g>
					<rect x="373.6" y="828.8" fill="#A9FFFF" width="15.6" height="15.6"/>
					<rect x="373.6" y="828.8" fill="#82F4F1" width="2.6" height="15.6"/>
				</g>
				<g>
					<rect x="319.5" y="854.5" fill="#A9FFFF" width="15.6" height="15.6"/>
					<rect x="319.5" y="854.5" fill="#82F4F1" width="2.6" height="15.6"/>
				</g>
				<g>
					<rect x="346.6" y="854.5" fill="#A9FFFF" width="15.6" height="15.6"/>
					<rect x="346.6" y="854.5" fill="#82F4F1" width="2.6" height="15.6"/>
				</g>
				<g>
					<rect x="373.6" y="854.5" fill="#A9FFFF" width="15.6" height="15.6"/>
					<rect x="373.6" y="854.5" fill="#82F4F1" width="2.6" height="15.6"/>
				</g>
				<g>
					<rect x="319.5" y="880.3" fill="#A9FFFF" width="15.6" height="15.6"/>
					<rect x="319.5" y="880.3" fill="#82F4F1" width="2.6" height="15.6"/>
				</g>
				<g>
					<rect x="346.6" y="880.3" fill="#A9FFFF" width="15.6" height="15.6"/>
					<rect x="346.6" y="880.3" fill="#82F4F1" width="2.6" height="15.6"/>
				</g>
				<g>
					<rect x="403" y="899.6" fill="#A9FFFF" width="21.5" height="21.5"/>
					<rect x="403" y="899.6" fill="#82F4F1" width="3.6" height="21.5"/>
				</g>
				<g>
					<rect x="440.3" y="899.6" fill="#A9FFFF" width="21.5" height="21.5"/>
					<rect x="440.3" y="899.6" fill="#82F4F1" width="3.6" height="21.5"/>
				</g>
				<g>
					<rect x="403" y="935" fill="#A9FFFF" width="21.5" height="21.5"/>
					<rect x="403" y="935" fill="#82F4F1" width="3.6" height="21.5"/>
				</g>
				<g>
					<rect x="440.3" y="935" fill="#A9FFFF" width="21.5" height="21.5"/>
					<rect x="440.3" y="935" fill="#82F4F1" width="3.6" height="21.5"/>
				</g>
				<g>
					<rect x="403" y="977.4" fill="#A9FFFF" width="21.5" height="21.5"/>
					<rect x="403" y="977.4" fill="#82F4F1" width="3.6" height="21.5"/>
				</g>
				<g>
					<rect x="440.3" y="977.4" fill="#A9FFFF" width="21.5" height="21.5"/>
					<rect x="440.3" y="977.4" fill="#82F4F1" width="3.6" height="21.5"/>
				</g>
				<g>
					<rect x="403" y="1012.9" fill="#A9FFFF" width="21.5" height="21.5"/>
					<rect x="403" y="1012.9" fill="#82F4F1" width="3.6" height="21.5"/>
				</g>
				<g>
					<rect x="440.3" y="1012.9" fill="#A9FFFF" width="21.5" height="21.5"/>
					<rect x="440.3" y="1012.9" fill="#82F4F1" width="3.6" height="21.5"/>
				</g>
				<g>
					<rect x="373.6" y="880.3" fill="#A9FFFF" width="15.6" height="15.6"/>
					<rect x="373.6" y="880.3" fill="#82F4F1" width="2.6" height="15.6"/>
				</g>
				<g>
					<rect x="244.8" y="551.3" fill="#A9FFFF" width="58.7" height="15.2"/>
					<rect x="244.8" y="551.3" fill="#82F4F1" width="3.9" height="15.2"/>
				</g>
				<g>
					<rect x="244.8" y="586.2" fill="#A9FFFF" width="58.7" height="15.2"/>
					<rect x="244.8" y="586.2" fill="#82F4F1" width="3.9" height="15.2"/>
				</g>
				<g>
					<rect x="244.8" y="621.2" fill="#A9FFFF" width="58.7" height="15.2"/>
					<rect x="244.8" y="621.2" fill="#82F4F1" width="3.9" height="15.2"/>
				</g>
				<g>
					<rect x="244.8" y="656.1" fill="#A9FFFF" width="58.7" height="15.2"/>
					<rect x="244.8" y="656.1" fill="#82F4F1" width="3.9" height="15.2"/>
				</g>
				<g>
					<rect x="244.8" y="691" fill="#A9FFFF" width="58.7" height="15.2"/>
					<rect x="244.8" y="691" fill="#82F4F1" width="3.9" height="15.2"/>
				</g>
				<g>
					<rect x="244.8" y="725.9" fill="#A9FFFF" width="58.7" height="15.2"/>
					<rect x="244.8" y="725.9" fill="#82F4F1" width="3.9" height="15.2"/>
				</g>
				<g>
					<rect x="244.8" y="760.8" fill="#A9FFFF" width="58.7" height="15.2"/>
					<rect x="244.8" y="760.8" fill="#82F4F1" width="3.9" height="15.2"/>
				</g>
				<g>
					<rect x="244.8" y="795.7" fill="#A9FFFF" width="58.7" height="15.2"/>
					<rect x="244.8" y="795.7" fill="#82F4F1" width="3.9" height="15.2"/>
				</g>
				<g>
					<rect x="244.8" y="830.6" fill="#A9FFFF" width="58.7" height="15.2"/>
					<rect x="244.8" y="830.6" fill="#82F4F1" width="3.9" height="15.2"/>
				</g>
				<g>
					<rect x="244.8" y="865.5" fill="#A9FFFF" width="58.7" height="15.2"/>
					<rect x="244.8" y="865.5" fill="#82F4F1" width="3.9" height="15.2"/>
				</g>
				<g>
					<rect x="403" y="551.3" fill="#A9FFFF" width="58.7" height="15.2"/>
					<rect x="403" y="551.3" fill="#82F4F1" width="3.9" height="15.2"/>
				</g>
				<g>
					<rect x="403" y="586.2" fill="#A9FFFF" width="58.7" height="15.2"/>
					<rect x="403" y="586.2" fill="#82F4F1" width="3.9" height="15.2"/>
				</g>
				<g>
					<rect x="403" y="621.2" fill="#A9FFFF" width="58.7" height="15.2"/>
					<rect x="403" y="621.2" fill="#82F4F1" width="3.9" height="15.2"/>
				</g>
				<g>
					<rect x="403" y="656.1" fill="#A9FFFF" width="58.7" height="15.2"/>
					<rect x="403" y="656.1" fill="#82F4F1" width="3.9" height="15.2"/>
				</g>
				<g>
					<rect x="403" y="691" fill="#A9FFFF" width="58.7" height="15.2"/>
					<rect x="403" y="691" fill="#82F4F1" width="3.9" height="15.2"/>
				</g>
				<g>
					<rect x="403" y="725.9" fill="#A9FFFF" width="58.7" height="15.2"/>
					<rect x="403" y="725.9" fill="#82F4F1" width="3.9" height="15.2"/>
				</g>
				<g>
					<rect x="403" y="760.8" fill="#A9FFFF" width="58.7" height="15.2"/>
					<rect x="403" y="760.8" fill="#82F4F1" width="3.9" height="15.2"/>
				</g>
				<g>
					<rect x="403" y="795.7" fill="#A9FFFF" width="58.7" height="15.2"/>
					<rect x="403" y="795.7" fill="#82F4F1" width="3.9" height="15.2"/>
				</g>
				<g>
					<rect x="403" y="830.6" fill="#A9FFFF" width="58.7" height="15.2"/>
					<rect x="403" y="830.6" fill="#82F4F1" width="3.9" height="15.2"/>
				</g>
				<g>
					<rect x="403" y="865.5" fill="#A9FFFF" width="58.7" height="15.2"/>
					<rect x="403" y="865.5" fill="#82F4F1" width="3.9" height="15.2"/>
				</g>
			</g>
			<g>
				<rect x="705.6" y="733.3" fill="#FFFFFF" width="135.2" height="388.7"/>
				<rect x="840.9" y="733.3" fill="#B7E6F9" width="74.1" height="388.7"/>
				<rect x="722.7" y="753.7" fill="#F9325F" width="102" height="20.8"/>
				<rect x="853.9" y="753.7" fill="#0A2463" width="47.9" height="9.8"/>
				<rect x="853.9" y="774.5" fill="#0A2463" width="47.9" height="9.8"/>
				<rect x="853.9" y="795.3" fill="#0A2463" width="47.9" height="9.8"/>
				<rect x="853.9" y="816.1" fill="#0A2463" width="47.9" height="9.8"/>
				<rect x="853.9" y="836.9" fill="#0A2463" width="47.9" height="9.8"/>
				<rect x="853.9" y="857.7" fill="#0A2463" width="47.9" height="9.8"/>
				<rect x="853.9" y="878.5" fill="#0A2463" width="47.9" height="9.8"/>
				<rect x="853.9" y="899.3" fill="#0A2463" width="47.9" height="9.8"/>
				<rect x="853.9" y="920.1" fill="#0A2463" width="47.9" height="9.8"/>
				<rect x="853.9" y="941" fill="#0A2463" width="47.9" height="9.8"/>
				<rect x="853.9" y="961.8" fill="#0A2463" width="47.9" height="9.8"/>
				<rect x="853.9" y="982.6" fill="#0A2463" width="47.9" height="9.8"/>
				<rect x="853.9" y="1003.4" fill="#0A2463" width="47.9" height="9.8"/>
				<rect x="853.9" y="1024.2" fill="#0A2463" width="47.9" height="9.8"/>
				<rect x="853.9" y="1045" fill="#0A2463" width="47.9" height="9.8"/>
				<rect x="853.9" y="1065.8" fill="#0A2463" width="47.9" height="9.8"/>
				<rect x="853.9" y="1086.6" fill="#0A2463" width="47.9" height="9.8"/>
				<rect x="722.7" y="790.1" fill="#F9325F" width="102" height="20.8"/>
				<rect x="722.7" y="826.5" fill="#F9325F" width="102" height="20.8"/>
				<rect x="722.7" y="862.9" fill="#F9325F" width="102" height="20.8"/>
				<rect x="722.7" y="899.3" fill="#F9325F" width="102" height="20.8"/>
				<rect x="722.7" y="935.8" fill="#F9325F" width="102" height="20.8"/>
				<rect x="722.7" y="972.2" fill="#F9325F" width="102" height="20.8"/>
				<rect x="722.7" y="1008.6" fill="#F9325F" width="102" height="20.8"/>
				<rect x="722.7" y="1045" fill="#F9325F" width="102" height="20.8"/>
				<rect x="722.7" y="1081.4" fill="#F9325F" width="102" height="20.8"/>
			</g>
			<g>
				<rect x="279.8" y="794.2" fill="#FFFFFF" width="135.2" height="388.7"/>
				<rect x="205.7" y="794.2" fill="#B7E6F9" width="74.1" height="388.7"/>
				<rect x="296" y="814.6" fill="#F9325F" width="102" height="20.8"/>
				<rect x="218.8" y="814.6" fill="#0A2463" width="47.9" height="9.8"/>
				<rect x="218.8" y="835.4" fill="#0A2463" width="47.9" height="9.8"/>
				<rect x="218.8" y="856.2" fill="#0A2463" width="47.9" height="9.8"/>
				<rect x="218.8" y="877" fill="#0A2463" width="47.9" height="9.8"/>
				<rect x="218.8" y="897.8" fill="#0A2463" width="47.9" height="9.8"/>
				<rect x="218.8" y="918.6" fill="#0A2463" width="47.9" height="9.8"/>
				<rect x="218.8" y="939.4" fill="#0A2463" width="47.9" height="9.8"/>
				<rect x="218.8" y="960.2" fill="#0A2463" width="47.9" height="9.8"/>
				<rect x="218.8" y="981.1" fill="#0A2463" width="47.9" height="9.8"/>
				<rect x="218.8" y="1001.9" fill="#0A2463" width="47.9" height="9.8"/>
				<rect x="218.8" y="1022.7" fill="#0A2463" width="47.9" height="9.8"/>
				<rect x="218.8" y="1043.5" fill="#0A2463" width="47.9" height="9.8"/>
				<rect x="218.8" y="1064.3" fill="#0A2463" width="47.9" height="9.8"/>
				<rect x="218.8" y="1085.1" fill="#0A2463" width="47.9" height="9.8"/>
				<rect x="218.8" y="1105.9" fill="#0A2463" width="47.9" height="9.8"/>
				<rect x="218.8" y="1126.7" fill="#0A2463" width="47.9" height="9.8"/>
				<rect x="218.8" y="1147.5" fill="#0A2463" width="47.9" height="9.8"/>
				<rect x="296" y="851" fill="#F9325F" width="102" height="20.8"/>
				<rect x="296" y="887.4" fill="#F9325F" width="102" height="20.8"/>
				<rect x="296" y="923.8" fill="#F9325F" width="102" height="20.8"/>
				<rect x="296" y="960.2" fill="#F9325F" width="102" height="20.8"/>
				<rect x="296" y="996.7" fill="#F9325F" width="102" height="20.8"/>
				<rect x="296" y="1033.1" fill="#F9325F" width="102" height="20.8"/>
				<rect x="296" y="1069.5" fill="#F9325F" width="102" height="20.8"/>
				<rect x="296" y="1105.9" fill="#F9325F" width="102" height="20.8"/>
				<rect x="296" y="1142.3" fill="#F9325F" width="102" height="20.8"/>
			</g>
			<g>
				<rect x="481.3" y="798.8" fill="#FFFFFF" width="112.9" height="249.6"/>
				<rect x="594.1" y="798.8" fill="#B7E6F9" width="61.8" height="249.6"/>
				<rect x="456.1" y="835.9" fill="#FFFFFF" width="144.3" height="388.7"/>
				<rect x="600.4" y="835.9" fill="#B7E6F9" width="79" height="388.7"/>
				<rect x="474.3" y="856.2" fill="#F9325F" width="108.8" height="20.8"/>
				<rect x="614.4" y="856.2" fill="#0A2463" width="51.1" height="9.8"/>
				<rect x="614.4" y="877" fill="#0A2463" width="51.1" height="9.8"/>
				<rect x="614.4" y="897.8" fill="#0A2463" width="51.1" height="9.8"/>
				<rect x="614.4" y="918.7" fill="#0A2463" width="51.1" height="9.8"/>
				<rect x="614.4" y="939.5" fill="#0A2463" width="51.1" height="9.8"/>
				<rect x="614.4" y="960.3" fill="#0A2463" width="51.1" height="9.8"/>
				<rect x="614.4" y="981.1" fill="#0A2463" width="51.1" height="9.8"/>
				<rect x="614.4" y="1001.9" fill="#0A2463" width="51.1" height="9.8"/>
				<rect x="614.4" y="1022.7" fill="#0A2463" width="51.1" height="9.8"/>
				<rect x="614.4" y="1043.5" fill="#0A2463" width="51.1" height="9.8"/>
				<rect x="614.4" y="1064.3" fill="#0A2463" width="51.1" height="9.8"/>
				<rect x="614.4" y="1085.1" fill="#0A2463" width="51.1" height="9.8"/>
				<rect x="614.4" y="1105.9" fill="#0A2463" width="51.1" height="9.8"/>
				<rect x="614.4" y="1126.7" fill="#0A2463" width="51.1" height="9.8"/>
				<rect x="614.4" y="1147.5" fill="#0A2463" width="51.1" height="9.8"/>
				<rect x="614.4" y="1168.3" fill="#0A2463" width="51.1" height="9.8"/>
				<rect x="614.4" y="1189.2" fill="#0A2463" width="51.1" height="9.8"/>
				<rect x="474.3" y="892.6" fill="#F9325F" width="108.8" height="20.8"/>
				<rect x="474.3" y="929.1" fill="#F9325F" width="108.8" height="20.8"/>
				<rect x="474.3" y="965.5" fill="#F9325F" width="108.8" height="20.8"/>
				<rect x="474.3" y="1001.9" fill="#F9325F" width="108.8" height="20.8"/>
				<rect x="474.3" y="1038.3" fill="#F9325F" width="108.8" height="20.8"/>
				<rect x="474.3" y="1074.7" fill="#F9325F" width="108.8" height="20.8"/>
				<rect x="474.3" y="1111.1" fill="#F9325F" width="108.8" height="20.8"/>
				<rect x="474.3" y="1147.5" fill="#F9325F" width="108.8" height="20.8"/>
				<rect x="474.3" y="1184" fill="#F9325F" width="108.8" height="20.8"/>
			</g>
			<g>
				<rect x="1044" y="811.5" fill="#FFFFFF" width="112.9" height="249.6"/>
				<rect x="982.1" y="811.5" fill="#B7E6F9" width="61.8" height="249.6"/>
				<rect x="1037.7" y="848.6" fill="#FFFFFF" width="144.3" height="388.7"/>
				<rect x="958.6" y="848.6" fill="#B7E6F9" width="79" height="388.7"/>
				<rect x="1055" y="869" fill="#F9325F" width="108.8" height="20.8"/>
				<rect x="972.6" y="869" fill="#0A2463" width="51.1" height="9.8"/>
				<rect x="972.6" y="889.8" fill="#0A2463" width="51.1" height="9.8"/>
				<rect x="972.6" y="910.6" fill="#0A2463" width="51.1" height="9.8"/>
				<rect x="972.6" y="931.4" fill="#0A2463" width="51.1" height="9.8"/>
				<rect x="972.6" y="952.2" fill="#0A2463" width="51.1" height="9.8"/>
				<rect x="972.6" y="973" fill="#0A2463" width="51.1" height="9.8"/>
				<rect x="972.6" y="993.8" fill="#0A2463" width="51.1" height="9.8"/>
				<rect x="972.6" y="1014.6" fill="#0A2463" width="51.1" height="9.8"/>
				<rect x="972.6" y="1035.4" fill="#0A2463" width="51.1" height="9.8"/>
				<rect x="972.6" y="1056.3" fill="#0A2463" width="51.1" height="9.8"/>
				<rect x="972.6" y="1077.1" fill="#0A2463" width="51.1" height="9.8"/>
				<rect x="972.6" y="1097.9" fill="#0A2463" width="51.1" height="9.8"/>
				<rect x="972.6" y="1118.7" fill="#0A2463" width="51.1" height="9.8"/>
				<rect x="972.6" y="1139.5" fill="#0A2463" width="51.1" height="9.8"/>
				<rect x="972.6" y="1160.3" fill="#0A2463" width="51.1" height="9.8"/>
				<rect x="972.6" y="1181.1" fill="#0A2463" width="51.1" height="9.8"/>
				<rect x="972.6" y="1201.9" fill="#0A2463" width="51.1" height="9.8"/>
				<rect x="1055" y="905.4" fill="#F9325F" width="108.8" height="20.8"/>
				<rect x="1055" y="941.8" fill="#F9325F" width="108.8" height="20.8"/>
				<rect x="1055" y="978.2" fill="#F9325F" width="108.8" height="20.8"/>
				<rect x="1055" y="1014.6" fill="#F9325F" width="108.8" height="20.8"/>
				<rect x="1055" y="1051.1" fill="#F9325F" width="108.8" height="20.8"/>
				<rect x="1055" y="1087.5" fill="#F9325F" width="108.8" height="20.8"/>
				<rect x="1055" y="1123.9" fill="#F9325F" width="108.8" height="20.8"/>
				<rect x="1055" y="1160.3" fill="#F9325F" width="108.8" height="20.8"/>
				<rect x="1055" y="1196.7" fill="#F9325F" width="108.8" height="20.8"/>
			</g>
			<g>
				<g>
					<path fill="#AED5FF" d="M686.6,1127.8l-45.7,31.3l15.2-58.6c0,0-51-36.9-74.7-47.3l-46.2,41.3l-11.5-82
						c0,0-60.4-13.9-77.2-16.8l-3.4,46.7l-39-54l-43.5,4.4l7.4,36.7L318,996.4c0,0-125.1,13.3-194.5,46.9c0,0,92,53,141.2,89.6
						l40.1-5.9l-20.4,23.8l94.7,63.5l58.1-36.5l-33.6,42.5c0,0,68.4,36.2,82.3,45.9l23.8-11.4l-13.2,18.7c0,0,127.1,44.4,179.5,25.1
						c30.8-18.8,47.5-59,47.5-59C726.7,1182.8,686.6,1127.8,686.6,1127.8z"/>
					<path fill="#6EA7F1" d="M181.8,1032.4c0,0,131.6-8.5,298.8,83.6c0,0,113.3,55.8,172.3,169c0,0-66-99.8-175.6-160.5
						C332.6,1044.4,181.8,1032.4,181.8,1032.4z"/>
				</g>
				<g>
					<path fill="#AED5FF" d="M668.5,1127.8l45.7,31.3l-15.2-58.6c0,0,51-36.9,74.7-47.3l46.2,41.3l11.5-82c0,0,60.4-13.9,77.2-16.8
						l3.4,46.7l39-54l43.5,4.4l-7.4,36.7l49.9-33.1c0,0,125.1,13.3,194.5,46.9c0,0-92,53-141.2,89.6l-40.1-5.9l20.4,23.8l-94.7,63.5
						l-58.1-36.5l33.6,42.5c0,0-68.4,36.2-82.3,45.9l-23.8-11.4l13.2,18.7c0,0-127.1,44.4-179.5,25.1c-30.8-18.8-47.5-59-47.5-59
						C628.4,1182.8,668.5,1127.8,668.5,1127.8z"/>
					<path fill="#6EA7F1" d="M1173.4,1032.4c0,0-131.6-8.5-298.8,83.6c0,0-113.3,55.8-172.3,169c0,0,66-99.8,175.6-160.5
						C1022.5,1044.4,1173.4,1032.4,1173.4,1032.4z"/>
				</g>
			</g>
		</g>
	</g>
</g>
</svg>
