<?xml version="1.0" encoding="utf-8"?>
<!-- Generator: Adobe Illustrator 18.0.0, SVG Export Plug-In . SVG Version: 6.00 Build 0)  -->
<!DOCTYPE svg PUBLIC "-//W3C//DTD SVG 1.1//EN" "http://www.w3.org/Graphics/SVG/1.1/DTD/svg11.dtd">
<svg version="1.1" id="Layer_1" xmlns="http://www.w3.org/2000/svg" xmlns:xlink="http://www.w3.org/1999/xlink" x="0px" y="0px"
	 width="1400px" height="1400px" viewBox="0 0 1400 1400" enable-background="new 0 0 1400 1400" xml:space="preserve">
<g>
	<path fill="#B2E8F7" d="M1203,952c38-75.8,59.5-161.4,59.5-252c0-310.6-251.8-562.5-562.5-562.5S137.5,389.4,137.5,700
		c0,90.6,21.4,176.2,59.5,252H1203z"/>
	<ellipse fill="#98C9D8" cx="700" cy="1176.1" rx="617.9" ry="67.2"/>
	<g>
		<path fill="#E7F1F7" d="M358.1,218.4h338.3c17.1,0,33.6,6.1,46.7,17.2l15.7,13.4c4.5,3.8,3.6,10.9-1.7,13.5l-17.7,8.6
			c-20.1,9.8-42.2,14.9-64.5,14.9H524.2c-31.5,0-62.8-6.1-92-18l-77.6-31.6c-3.5-1.4-5.8-4.8-5.8-8.6v0
			C348.8,222.6,352.9,218.4,358.1,218.4z"/>
		<path fill="#D2494D" d="M355.4,221.8v-66.8c0-1.2,1-2.2,2.2-2.2h15.5c2.4,0,4.6,1.3,5.7,3.4l34.6,65.6H355.4z"/>
		<path fill="#D1E1E8" d="M723.7,273.5H460.9c20.6,5.5,41.9,8.4,63.3,8.4h150.6C691.5,281.9,708,279.1,723.7,273.5z"/>
		<path fill="#D1E1E8" d="M349.3,226.7c0.9,2.5,2.8,4.6,5.3,5.6l77.6,31.6c17.5,7.1,35.7,12.2,54.3,15.1L349.3,226.7z"/>
		<path fill="#D1E1E8" d="M354.6,232.3l9.2,3.7l30-11.8h-45C349,227.8,351.2,230.9,354.6,232.3z"/>
		<circle fill="#D2494D" cx="557.6" cy="286" r="14.7"/>
		<circle fill="#414042" cx="557.6" cy="286" r="10.8"/>
		<path fill="#F5FBFF" d="M543,286c0-8.1,6.6-14.7,14.7-14.7h-7.8c-7.2,0-14.3,1.5-20.8,4.8c-3.4,1.7-6.8,4-9.4,6.9
			c-1.4,1.6-2.2,3.7-2.2,5.8c0,2.9,1.4,5.6,3.7,7.2c4.2,3,9.2,4.6,14.3,4.6h22.1C549.6,300.6,543,294.1,543,286z"/>
		<circle fill="#D2494D" cx="686" cy="286" r="14.7"/>
		<circle fill="#414042" cx="686" cy="286" r="10.8"/>
		<path fill="#F5FBFF" d="M671.3,286c0-8.1,6.6-14.7,14.7-14.7h-7.8c-7.2,0-14.3,1.5-20.8,4.8c-3.4,1.7-6.8,4-9.4,6.9
			c-1.4,1.6-2.2,3.7-2.2,5.8c0,2.9,1.4,5.6,3.7,7.2c4.2,3,9.2,4.6,14.3,4.6H686C677.9,300.6,671.3,294.1,671.3,286z"/>
		<rect x="316.2" y="221.8" fill="#F5FBFF" width="80.2" height="2.5"/>
		<path fill="#F5FBFF" d="M326.3,241.2l22.5,22.8c2.6,2.7,6.3,4.2,10,4.2h222.4c2.1,0,3.8-1.7,3.8-3.8v0c0-2.1-1.7-3.9-3.9-3.8
			l-218.6,2.3L343.2,246c-3.5-3.1-8-4.7-12.6-4.7H326.3z"/>
		<path fill="#D2494D" d="M384.4,262.6l-21.9,0.2L343.2,246c-3.5-3.1-8-4.7-12.6-4.7h-4.4l22.5,22.8c2.6,2.7,6.3,4.2,10,4.2h25.6
			V262.6z"/>
		<path fill="#414042" d="M706.9,227.9c0.9,5.5,19.4,6.6,34.7,6.6c-2.6-2.1-5.3-4-8.1-5.7C719,228.7,706.9,227.9,706.9,227.9z"/>
		<rect x="316.2" y="221.8" fill="#D2494D" width="20.7" height="2.5"/>
	</g>
	<path fill="#FFFFFF" d="M1173.9,264L1173.9,264c0-8.8-7.2-16-16-16h-47.3c-8.8,0-16-7.2-16-16v0c0-8.8-7.2-16-16-16H847.5
		c-8.8,0-16,7.2-16,16v0c0,8.8,7.2,16,16,16h62c8.8,0,16,7.2,16,16v0c0,8.8-7.2,16-16,16h-24.3c-8.8,0-16,7.2-16,16v0
		c0,8.8,7.2,16,16,16H1199c8.8,0,16-7.2,16-16v0c0-8.8-7.2-16-16-16h-9.1C1181.1,280,1173.9,272.8,1173.9,264z"/>
	<path fill="#FFFFFF" d="M543.9,771L543.9,771c0-8.8-7.2-16-16-16h-47.3c-8.8,0-16-7.2-16-16l0,0c0-8.8-7.2-16-16-16H217.5
		c-8.8,0-16,7.2-16,16l0,0c0,8.8,7.2,16,16,16h62c8.8,0,16,7.2,16,16l0,0c0,8.8-7.2,16-16,16h-24.3c-8.8,0-16,7.2-16,16l0,0
		c0,8.8,7.2,16,16,16H569c8.8,0,16-7.2,16-16l0,0c0-8.8-7.2-16-16-16h-9.1C551.1,787,543.9,779.8,543.9,771z"/>
	<path fill="#FFFFFF" d="M414.3,435L414.3,435c0-8.8,7.2-16,16-16h9.7c8.8,0,16-7.2,16-16v0c0-8.8-7.2-16-16-16H223.5
		c-8.8,0-16,7.2-16,16v0c0,8.8-7.2,16-16,16h-56.2c-8.8,0-16,7.2-16,16v0c0,8.8,7.2,16,16,16h20.8c8.8,0,16,7.2,16,16v0
		c0,8.8,7.2,16,16,16H479c8.8,0,16-7.2,16-16v0c0-8.8-7.2-16-16-16h-48.7C421.5,451,414.3,443.8,414.3,435z"/>
	<path fill="#FFFFFF" d="M827.7,591L827.7,591c0,8.8-7.2,16-16,16H802c-8.8,0-16,7.2-16,16l0,0c0,8.8,7.2,16,16,16h216.4
		c8.8,0,16-7.2,16-16l0,0c0-8.8,7.2-16,16-16h56.2c8.8,0,16-7.2,16-16l0,0c0-8.8-7.2-16-16-16h-20.8c-8.8,0-16-7.2-16-16l0,0
		c0-8.8-7.2-16-16-16H763c-8.8,0-16,7.2-16,16l0,0c0,8.8,7.2,16,16,16h48.7C820.5,575,827.7,582.2,827.7,591z"/>
	<g>
		<g>
			<polygon fill="#443832" points="979.5,1187.9 961.7,1187.9 959.2,1164.3 982,1164.3 			"/>
			<polygon fill="#443832" points="1159.9,1187.9 1142.1,1187.9 1139.6,1164.3 1162.4,1164.3 			"/>
			<polygon fill="#594A42" points="966.6,1187.9 948.8,1187.9 946.3,1164.3 969.1,1164.3 			"/>
			<polygon fill="#594A42" points="1147,1187.9 1129.2,1187.9 1126.7,1164.3 1149.5,1164.3 			"/>
			<polygon fill="#594A42" points="965.6,1176.1 1142,1176.1 1142,1150.7 961.6,1150.7 			"/>
			<g>
				<rect x="993.6" y="494.8" fill="#C7C1CA" width="13.8" height="263.3"/>
			</g>
			<rect x="1004.6" y="494.8" fill="#DEDCE0" width="2.8" height="263.3"/>
			<g>
				<rect x="1097.8" y="494.8" fill="#C7C1CA" width="13.8" height="263.3"/>
			</g>
			<rect x="1108.8" y="494.8" fill="#DEDCE0" width="2.8" height="263.3"/>
			<g>
				<path fill="#F45B5B" d="M1120.3,499.6h-24.8v-21.3h-79.4v21.3h-24.8v-23.1c0-12.7,10.3-23,23-23h83.1c12.7,0,23,10.3,23,23
					V499.6z"/>
			</g>
			<path fill="#30B5B1" d="M1183.4,1164.9H925.4c-25.8,0-46.7-20.9-46.7-46.7V742.3c0-25.8,20.9-46.7,46.7-46.7h257.9
				c25.8,0,46.7,20.9,46.7,46.7v375.8C1230.1,1144,1209.2,1164.9,1183.4,1164.9z"/>
			<path fill="#27A6A6" d="M1155.5,1118.2V742.3c0-25.8-20.9-46.7-46.7-46.7H925.4c-25.8,0-46.7,20.9-46.7,46.7v375.8
				c0,25.8,20.9,46.7,46.7,46.7h183.3C1134.6,1164.9,1155.5,1144,1155.5,1118.2z"/>
			<path fill="#F45B5B" d="M1183.4,695.6H925.4c-25.8,0-46.7,20.9-46.7,46.7v54.2h351.4v-54.2
				C1230.1,716.5,1209.2,695.6,1183.4,695.6z"/>
			<path fill="#EE4945" d="M1108.8,695.6H925.4c-25.8,0-46.7,20.9-46.7,46.7v54.2h276.8v-54.2
				C1155.5,716.5,1134.6,695.6,1108.8,695.6z"/>
			<g>
				<path fill="#34C1BA" d="M907.1,1128.8L907.1,1128.8c-2.8,0-5-2.3-5-5V820.9c0-2.8,2.3-5,5-5l0,0c2.8,0,5,2.3,5,5v302.9
					C912.1,1126.6,909.9,1128.8,907.1,1128.8z"/>
				<path fill="#34C1BA" d="M925.3,1128.8L925.3,1128.8c-2.8,0-5-2.3-5-5V820.9c0-2.8,2.3-5,5-5h0c2.8,0,5,2.3,5,5v302.9
					C930.4,1126.6,928.1,1128.8,925.3,1128.8z"/>
				<path fill="#34C1BA" d="M943.6,1128.8L943.6,1128.8c-2.8,0-5-2.3-5-5V820.9c0-2.8,2.3-5,5-5l0,0c2.8,0,5,2.3,5,5v302.9
					C948.7,1126.6,946.4,1128.8,943.6,1128.8z"/>
				<path fill="#34C1BA" d="M961.9,1128.8L961.9,1128.8c-2.8,0-5-2.3-5-5V820.9c0-2.8,2.3-5,5-5l0,0c2.8,0,5,2.3,5,5v302.9
					C966.9,1126.6,964.7,1128.8,961.9,1128.8z"/>
				<path fill="#34C1BA" d="M980.1,1128.8L980.1,1128.8c-2.8,0-5-2.3-5-5V820.9c0-2.8,2.3-5,5-5l0,0c2.8,0,5,2.3,5,5v302.9
					C985.2,1126.6,982.9,1128.8,980.1,1128.8z"/>
				<path fill="#34C1BA" d="M998.4,1128.8L998.4,1128.8c-2.8,0-5-2.3-5-5V820.9c0-2.8,2.3-5,5-5l0,0c2.8,0,5,2.3,5,5v302.9
					C1003.5,1126.6,1001.2,1128.8,998.4,1128.8z"/>
				<path fill="#34C1BA" d="M1016.7,1128.8L1016.7,1128.8c-2.8,0-5-2.3-5-5V820.9c0-2.8,2.3-5,5-5l0,0c2.8,0,5,2.3,5,5v302.9
					C1021.7,1126.6,1019.5,1128.8,1016.7,1128.8z"/>
				<path fill="#34C1BA" d="M1035,1128.8L1035,1128.8c-2.8,0-5-2.3-5-5V820.9c0-2.8,2.3-5,5-5l0,0c2.8,0,5,2.3,5,5v302.9
					C1040,1126.6,1037.7,1128.8,1035,1128.8z"/>
				<path fill="#34C1BA" d="M1053.2,1128.8L1053.2,1128.8c-2.8,0-5-2.3-5-5V820.9c0-2.8,2.3-5,5-5l0,0c2.8,0,5,2.3,5,5v302.9
					C1058.3,1126.6,1056,1128.8,1053.2,1128.8z"/>
				<path fill="#34C1BA" d="M1071.5,1128.8L1071.5,1128.8c-2.8,0-5-2.3-5-5V820.9c0-2.8,2.3-5,5-5l0,0c2.8,0,5,2.3,5,5v302.9
					C1076.5,1126.6,1074.3,1128.8,1071.5,1128.8z"/>
				<path fill="#34C1BA" d="M1089.8,1128.8L1089.8,1128.8c-2.8,0-5-2.3-5-5V820.9c0-2.8,2.3-5,5-5l0,0c2.8,0,5,2.3,5,5v302.9
					C1094.8,1126.6,1092.6,1128.8,1089.8,1128.8z"/>
				<path fill="#34C1BA" d="M1108,1128.8L1108,1128.8c-2.8,0-5-2.3-5-5V820.9c0-2.8,2.3-5,5-5l0,0c2.8,0,5,2.3,5,5v302.9
					C1113.1,1126.6,1110.8,1128.8,1108,1128.8z"/>
				<path fill="#34C1BA" d="M1126.3,1128.8L1126.3,1128.8c-2.8,0-5-2.3-5-5V820.9c0-2.8,2.3-5,5-5l0,0c2.8,0,5,2.3,5,5v302.9
					C1131.4,1126.6,1129.1,1128.8,1126.3,1128.8z"/>
			</g>
			<path fill="#FFFFFF" d="M1121.5,755.7H911.9c-2.7,0-4.8-2.2-4.8-4.8l0,0c0-2.7,2.2-4.8,4.8-4.8h209.6c2.7,0,4.8,2.2,4.8,4.8l0,0
				C1126.3,753.5,1124.2,755.7,1121.5,755.7z"/>
			<g>
				<path fill="#594A42" d="M1187.9,996h-5.2c-2.9,0-5.3-2.4-5.3-5.3s2.4-5.3,5.3-5.3h5.2c6.1,0,11.1-5,11.1-11.1V930
					c0-6.1-5-11.1-11.1-11.1h-5.2c-2.9,0-5.3-2.4-5.3-5.3c0-2.9,2.4-5.3,5.3-5.3h5.2c12,0,21.7,9.7,21.7,21.7v44.3
					C1209.5,986.3,1199.8,996,1187.9,996z"/>
			</g>
			<g>
				<path fill="#EE4945" d="M1114.4,499.6h-24.8v-21.3h-79.4v21.3h-24.8v-23.1c0-12.7,10.3-23,23-23h83.1c12.7,0,23,10.3,23,23
					V499.6z"/>
			</g>
			<rect x="1113.1" y="755.7" fill="#594A42" width="4.3" height="17"/>
		</g>
		<g>
			<polygon fill="#443832" points="636.7,1187.9 619,1187.9 616.4,1164.3 639.2,1164.3 			"/>
			<polygon fill="#443832" points="879.5,1187.9 861.7,1187.9 859.2,1164.3 882,1164.3 			"/>
			<polygon fill="#594A42" points="623.8,1187.9 606.1,1187.9 603.6,1164.3 626.3,1164.3 			"/>
			<polygon fill="#594A42" points="866.6,1187.9 848.8,1187.9 846.3,1164.3 869.1,1164.3 			"/>
			<polygon fill="#594A42" points="618.4,1176.1 857.7,1176.1 879.5,1150.7 614.5,1150.7 			"/>
			<g>
				<rect x="678.7" y="494.8" fill="#C7C1CA" width="13.8" height="287.7"/>
			</g>
			<rect x="689.7" y="494.8" fill="#DEDCE0" width="2.8" height="287.7"/>
			<g>
				<rect x="782.9" y="494.8" fill="#C7C1CA" width="13.8" height="287.7"/>
			</g>
			<rect x="793.9" y="494.8" fill="#DEDCE0" width="2.8" height="287.7"/>
			<g>
				<path fill="#FFAF45" d="M805.4,499.6h-24.8v-21.3h-79.4v21.3h-24.8v-23.1c0-12.7,10.3-23,23-23h83.1c12.7,0,23,10.3,23,23V499.6
					z"/>
			</g>
			<path fill="#594A42" d="M794.8,746.1H680.6c-6,0-10.9,4.9-10.9,10.9v24.9c0,6,4.9,10.9,10.9,10.9h114.2c6,0,10.9-4.9,10.9-10.9
				V757C805.7,750.9,800.8,746.1,794.8,746.1z"/>
			<g>
				<path fill="#FAA21E" d="M799.5,499.6h-24.8v-21.3h-79.4v21.3h-24.8v-23.1c0-12.7,10.3-23,23-23h83.1c12.7,0,23,10.3,23,23V499.6
					z"/>
			</g>
			<path fill="#FAA21E" d="M911.9,1164.9H564c-16.1,0-29.2-13.1-29.2-29.2V793.3c0-16.1,13.1-29.2,29.2-29.2h347.9
				c16.1,0,29.2,13.1,29.2,29.2v342.4C941,1151.9,928,1164.9,911.9,1164.9z"/>
			<path fill="#FFAF45" d="M845.5,793.3v342.4c0,16.1,13.1,29.2,29.2,29.2h37.2c16.1,0,29.2-13.1,29.2-29.2V793.3
				c0-16.1-13.1-29.2-29.2-29.2h-37.2C858.5,764.2,845.5,777.2,845.5,793.3z"/>
			<rect x="888" y="764.2" fill="#FFFFFF" width="10.6" height="400.7"/>
			<path fill="#594A42" d="M785.3,764.2H775H623.9c-15.9,0-28.8,12.9-28.8,28.8v75.9c0,5.9,4.8,10.7,10.7,10.7h168.9
				c5.9,0,10.7-4.8,10.7-10.7v-59.2v-16.3c0-16.1,13.1-29.2,29.2-29.2H785.3z"/>
			<path fill="#F97821" d="M801.6,1121.4H580.5c-8.2,0-14.9-6.6-14.9-14.9V933.6c0-8.2,6.6-14.9,14.9-14.9h221.1
				c8.2,0,14.9,6.6,14.9,14.9v172.9C816.5,1114.8,809.8,1121.4,801.6,1121.4z"/>
			<path fill="#E26814" d="M801.6,918.8H580.5c-8.2,0-14.9,6.6-14.9,14.9v24.7h250.8v-24.7C816.5,925.4,809.8,918.8,801.6,918.8z"/>
			<rect x="789.8" y="958.3" fill="#594A42" width="6.9" height="14"/>
		</g>
		<g>
			<path fill="#613713" d="M622.9,1187.9H210.4c-15.4,0-27.9-12.5-27.9-27.9v-97.6c0-15.4,12.5-27.9,27.9-27.9h412.5
				c15.4,0,27.9,12.5,27.9,27.9v97.6C650.8,1175.4,638.3,1187.9,622.9,1187.9z"/>
			<rect x="182.5" y="1081.6" fill="#FFFFFF" width="468.2" height="4"/>
			<g>
				<path fill="#FAF9FA" d="M416.6,1144.2c-23.2,0-46.3-1.7-69.3-5c-5-0.7-8.5-5.4-7.8-10.5c0.7-5,5.4-8.5,10.5-7.8
					c44,6.4,88.6,6.4,132.6,0.1l0.7-0.1c5-0.7,9.7,2.8,10.4,7.8c0.7,5-2.8,9.7-7.8,10.4l-0.7,0.1
					C462.5,1142.5,439.6,1144.2,416.6,1144.2z"/>
			</g>
			<path fill="#FAF9FA" d="M347.5,1140.5L347.5,1140.5c-6.2,0-11.2-5-11.2-11.2l0,0c0-6.2,5-11.2,11.2-11.2l0,0
				c6.2,0,11.2,5,11.2,11.2l0,0C358.7,1135.5,353.7,1140.5,347.5,1140.5z"/>
			<path fill="#FAF9FA" d="M485.8,1140.5L485.8,1140.5c6.2,0,11.2-5,11.2-11.2l0,0c0-6.2-5-11.2-11.2-11.2h0
				c-6.2,0-11.2,5-11.2,11.2l0,0C474.6,1135.5,479.6,1140.5,485.8,1140.5z"/>
			<rect x="231" y="1034.6" fill="#30B5B1" width="6" height="153.3"/>
			<rect x="250.4" y="1034.6" fill="#30B5B1" width="6" height="153.3"/>
			<rect x="269.9" y="1034.6" fill="#30B5B1" width="6" height="153.3"/>
			<rect x="596.3" y="1034.6" fill="#30B5B1" width="6" height="153.3"/>
			<rect x="576.8" y="1034.6" fill="#30B5B1" width="6" height="153.3"/>
			<rect x="557.4" y="1034.6" fill="#30B5B1" width="6" height="153.3"/>
			<path fill="#27A8A8" d="M279.3,1104.5h-20.8c-2.8,0-5.1-2.3-5.1-5.1v-33.2c0-2.8,2.3-5.1,5.1-5.1h20.8c2.8,0,5.1,2.3,5.1,5.1
				v33.2C284.5,1102.2,282.2,1104.5,279.3,1104.5z"/>
			<rect x="258.8" y="1066.6" fill="#E6E7E8" width="20.3" height="32.5"/>
			<path fill="#27A8A8" d="M574.7,1104.5h-20.8c-2.8,0-5.1-2.3-5.1-5.1v-33.2c0-2.8,2.3-5.1,5.1-5.1h20.8c2.8,0,5.1,2.3,5.1,5.1
				v33.2C579.9,1102.2,577.6,1104.5,574.7,1104.5z"/>
			<rect x="554.2" y="1066.6" fill="#E6E7E8" width="20.3" height="32.5"/>
		</g>
		<g>
			<path fill="#EE4945" d="M604.5,1034.3H148.2c-3.3,0-6-2.7-6-6V887c0-3.3,2.7-6,6-6h456.3c3.3,0,6,2.7,6,6v141.4
				C610.5,1031.6,607.8,1034.3,604.5,1034.3z"/>
			<g>
				<path fill="#594A42" d="M376.4,990.6c-23.2,0-46.3-1.7-69.3-5c-5-0.7-8.5-5.4-7.8-10.5c0.7-5,5.4-8.5,10.5-7.8
					c44,6.4,88.6,6.4,132.6,0.1l0.7-0.1c5-0.7,9.7,2.8,10.4,7.8c0.7,5-2.8,9.7-7.8,10.4l-0.7,0.1
					C422.2,988.9,399.3,990.6,376.4,990.6z"/>
			</g>
			<path fill="#594A42" d="M307.2,986.9L307.2,986.9c-6.2,0-11.2-5-11.2-11.2l0,0c0-6.2,5-11.2,11.2-11.2l0,0
				c6.2,0,11.2,5,11.2,11.2l0,0C318.4,981.9,313.4,986.9,307.2,986.9z"/>
			<path fill="#594A42" d="M445.5,986.9L445.5,986.9c6.2,0,11.2-5,11.2-11.2l0,0c0-6.2-5-11.2-11.2-11.2h0c-6.2,0-11.2,5-11.2,11.2
				l0,0C434.3,981.9,439.3,986.9,445.5,986.9z"/>
			<path fill="#C5252B" d="M168.2,881h-20c-3.3,0-6,2.7-6,6v20C156.6,907,168.2,895.3,168.2,881z"/>
			<path fill="#C5252B" d="M168.2,1034.3h-20c-3.3,0-6-2.7-6-6v-20C156.6,1008.3,168.2,1020,168.2,1034.3z"/>
			<path fill="#C5252B" d="M584.5,881h20c3.3,0,6,2.7,6,6v20C596.1,907,584.5,895.3,584.5,881z"/>
			<path fill="#C5252B" d="M584.5,1034.3h20c3.3,0,6-2.7,6-6v-20C596.1,1008.3,584.5,1020,584.5,1034.3z"/>
			<rect x="142.2" y="915.6" fill="#C5252B" width="468.2" height="8.6"/>
			<path fill="#C5252B" d="M604.5,881H148.2c-3.3,0-6,2.7-6,6v141.4c0,3.3,2.7,6,6,6h456.3c3.3,0,6-2.7,6-6V887
				C610.5,883.7,607.8,881,604.5,881z M601,1024.9H151.7V890.4H601V1024.9z"/>
			<path fill="#FFFFFF" d="M219.6,941.6h-11.7c-2.9,0-5.2-2.3-5.2-5.2v-24.2c0-2.9,2.3-5.2,5.2-5.2h11.7c2.9,0,5.2,2.3,5.2,5.2v24.2
				C224.8,939.2,222.4,941.6,219.6,941.6z"/>
			<path fill="#FFFFFF" d="M533.2,941.6h11.7c2.9,0,5.2-2.3,5.2-5.2v-24.2c0-2.9-2.3-5.2-5.2-5.2h-11.7c-2.9,0-5.2,2.3-5.2,5.2v24.2
				C527.9,939.2,530.3,941.6,533.2,941.6z"/>
		</g>
	</g>
</g>
</svg>
