<?xml version="1.0" encoding="utf-8"?>
<!-- Generator: Adobe Illustrator 18.0.0, SVG Export Plug-In . SVG Version: 6.00 Build 0)  -->
<!DOCTYPE svg PUBLIC "-//W3C//DTD SVG 1.1//EN" "http://www.w3.org/Graphics/SVG/1.1/DTD/svg11.dtd">
<svg version="1.1" xmlns="http://www.w3.org/2000/svg" xmlns:xlink="http://www.w3.org/1999/xlink" x="0px" y="0px" width="1400px"
	 height="1400px" viewBox="0 0 1400 1400" enable-background="new 0 0 1400 1400" xml:space="preserve">
<g id="Layer_2">
</g>
<g id="Layer_1">
	<g>
		<g>
			<defs>
				<path id="SVGID_1_" d="M1268.5,980.5h-82c47.7-82.5,75.1-178.3,75.1-280.5c0-92.7-22.5-180.2-62.3-257.3H882.3
					c-17.4,0-31.5-14.1-31.5-31.5v0c0-17.4,14.1-31.5,31.5-31.5h278.8h38.9c17.4,0,31.5-14.1,31.5-31.5v0
					c0-17.4-14.1-31.5-31.5-31.5h-89.9c-43.3-46.3-94.4-85.2-151.2-114.8h97.8c17.4,0,31.5-14.1,31.5-31.5v0
					c0-17.4-14.1-31.5-31.5-31.5H701.4c-0.1,0-0.2,0-0.2,0c-0.3,0-0.5,0-0.8,0c-107.9,0-208.7,30.5-294.2,83.2h63.6
					c17.4,0,31.5,14.1,31.5,31.5v0c0,17.4-14.1,31.5-31.5,31.5H322.6H182.2c-17.4,0-31.5,14.1-31.5,31.5v0
					c0,17.4,14.1,31.5,31.5,31.5h81.2c-42,52.2-75,112-96.3,177.1h86.6c17.4,0,31.5,14.1,31.5,31.5v0c0,17.4-14.1,31.5-31.5,31.5
					H150.4c-7.3,36.1-11.1,73.4-11.1,111.7c0,175.5,80.6,332.2,206.8,435.1h377.7c17.4,0,31.5,14.1,31.5,31.5v0
					c0,17.4-14.1,31.5-31.5,31.5H441.8H322.4c-17.4,0-31.5,14.1-31.5,31.5v0c0,17.4,14.1,31.5,31.5,31.5h401.3
					c2.5,0,4.8-0.3,7.1-0.8c168-9,316.3-91.9,413.2-216.7h124.4c17.4,0,31.5-14.1,31.5-31.5v0C1300,994.7,1285.9,980.5,1268.5,980.5
					z M384.8,556.8c0,17.4-14.1,31.5-31.5,31.5h-3.9c-17.4,0-31.5-14.1-31.5-31.5v0c0-17.4,14.1-31.5,31.5-31.5h3.9
					C370.7,525.3,384.8,539.4,384.8,556.8L384.8,556.8z"/>
			</defs>
			<clipPath id="SVGID_2_">
				<use xlink:href="#SVGID_1_"  overflow="visible"/>
			</clipPath>
			<g clip-path="url(#SVGID_2_)">
				<rect x="90.8" y="88.3" fill="#E1EFEE" width="1223.4" height="706.2"/>
				<polygon fill="#CFE2E0" points="90.8,512.4 168.9,512.4 168.9,649.9 237.7,649.9 237.7,392.5 369.6,392.5 369.6,512.4 
					474.6,512.4 474.6,569.5 513.3,569.5 513.3,619.2 564.2,619.2 564.2,352.8 607.6,352.8 607.6,520 710.7,520 710.7,611.2 
					781.5,611.2 781.5,453.4 889.5,453.4 889.5,529.8 956.7,529.8 956.7,573.9 1004.8,573.9 1004.8,479.8 1104.4,479.8 
					1104.4,636.9 1155.8,636.9 1155.8,573.9 1207.8,573.9 1207.8,615 1256.6,615 1256.6,520 1375.8,520 1375.8,957.7 34.5,957.7 
									"/>
				<path fill="#B5E5E1" d="M655.5,232.7h-17.6c-8.5,0-15.4-6.9-15.4-15.4v0c0-8.5,6.9-15.4,15.4-15.4h17.6
					c8.5,0,15.4,6.9,15.4,15.4v0C670.9,225.8,664,232.7,655.5,232.7z"/>
				<path fill="#B5E5E1" d="M898.9,391.9L898.9,391.9c0-8.5,6.9-15.4,15.4-15.4h181.3c8.5,0,15.4,6.9,15.4,15.4v0
					c0,8.5-6.9,15.4-15.4,15.4H1067c-8.5,0-15.4,6.9-15.4,15.4v0c0,8.5,6.9,15.4,15.4,15.4h63.8c8.5,0,15.4,6.9,15.4,15.4v0
					c0,8.5-6.9,15.4-15.4,15.4h-31.7c-8.5,0-15.4,6.9-15.4,15.4v0c0,8.5,6.9,15.4,15.4,15.4h65c8.5,0,15.4,6.9,15.4,15.4l0,0
					c0,8.5-6.9,15.4-15.4,15.4H878.2c-8.5,0-15.4-6.9-15.4-15.4l0,0c0-8.5,6.9-15.4,15.4-15.4H890c8.5,0,15.4-6.9,15.4-15.4v0
					c0-8.5-6.9-15.4-15.4-15.4h-27.8c-8.5,0-15.4-6.9-15.4-15.4v0c0-8.5-6.9-15.4-15.4-15.4h-13.3c-8.5,0-15.4-6.9-15.4-15.4v0
					c0-8.5,6.9-15.4,15.4-15.4h65.4C892,407.3,898.9,400.4,898.9,391.9z"/>
				<path fill="#B5E5E1" d="M677.5,279.3v-0.8c0-8.3-6.7-15-15-15h-78.2c-8.3,0-15-6.7-15-15v-0.8c0-8.3,6.7-15,15-15h3.2
					c8.3,0,15-6.7,15-15v-0.8c0-8.3-6.7-15-15-15h-143c-8.3,0-15,6.7-15,15v0.8c0,8.3-6.7,15-15,15h-8.7c-8.3,0-15,6.7-15,15v0.8
					c0,8.3-6.7,15-15,15h0c-8.3,0-15,6.7-15,15v0.8c0,8.3,6.7,15,15,15h63.6c8.3,0,15,6.7,15,15v0.8c0,8.3,6.7,15,15,15h264.7
					c8.3,0,15-6.7,15-15v-0.8c0-8.3-6.7-15-15-15h-41.7C684.2,294.2,677.5,287.5,677.5,279.3z"/>
				<path fill="#B5E5E1" d="M264.4,539.6v0.8c0,8.3,6.7,15,15,15h78.2c8.3,0,15,6.7,15,15v0.8c0,8.3-6.7,15-15,15h-3.2
					c-8.3,0-15,6.7-15,15v0.8c0,8.3,6.7,15,15,15h143c8.3,0,15-6.7,15-15v-0.8c0-8.3,6.7-15,15-15h8.7c8.3,0,15-6.7,15-15v-0.8
					c0-8.3,6.7-15,15-15h0c8.3,0,15-6.7,15-15v-0.8c0-8.3-6.7-15-15-15h-63.6c-8.3,0-15-6.7-15-15v-0.8c0-8.3-6.7-15-15-15H207.7
					c-8.3,0-15,6.7-15,15v0.8c0,8.3,6.7,15,15,15h41.7C257.7,524.7,264.4,531.4,264.4,539.6z"/>
				<path fill="#B5E5E1" d="M770.9,438h-27c-8.5,0-15.4-6.9-15.4-15.4v0c0-8.5,6.9-15.4,15.4-15.4h27c8.5,0,15.4,6.9,15.4,15.4v0
					C786.3,431.1,779.4,438,770.9,438z"/>
				<rect x="-3.3" y="429.4" fill="#A8CCC7" width="1411.5" height="24"/>
				<rect x="395.7" y="10.6" fill="#A8CCC7" width="24" height="1136.6"/>
				<rect x="891.1" y="10.6" fill="#A8CCC7" width="24" height="1136.6"/>
				<rect x="90.8" y="794.5" fill="#94BEC2" width="1223.4" height="517.2"/>
			</g>
		</g>
		<g>
			<path fill="#F7B808" d="M1121.2,989.1c0,0-7.5-12-18.9-12.9c-11.4-0.9-16.8,6.5-16.8,6.5l42.2,34.2c0,0,11.4-7.4,7.1-15.6
				L1121.2,989.1z"/>
			<path fill="#FBA486" d="M1128.4,1003.4c-1.4,0-2.9-0.4-4.2-1.1c-4.2-2.3-5.7-7.6-3.4-11.8l28.5-51.3c2.3-4.2,7.6-5.7,11.8-3.4
				c4.2,2.3,5.7,7.6,3.4,11.8l-28.5,51.3C1134.5,1001.8,1131.5,1003.4,1128.4,1003.4z"/>
			<path fill="#F7B808" d="M1219.4,987.7c0,0-13.2,5.1-16.2,16.1s3.2,17.7,3.2,17.7l41.6-35c0,0-5.1-12.5-14-9.9L1219.4,987.7z"/>
			<path fill="#FBA486" d="M1226.3,990.3c-2,0-4-0.7-5.6-2l-45.1-37.6c-3.7-3.1-4.2-8.6-1.1-12.3c3.1-3.7,8.6-4.2,12.3-1.1
				l45.1,37.6c3.7,3.1,4.2,8.6,1.1,12.3C1231.2,989.2,1228.8,990.3,1226.3,990.3z"/>
			<g>
				<path fill="#878787" d="M414.6,992.1c0-17.9-11.1-33.1-26.8-39.3v-2.9h-15.4c-23.3,0-42.2,18.9-42.2,42.2s18.9,42.2,42.2,42.2
					h15.4v-2.9C403.5,1025.3,414.6,1010,414.6,992.1z"/>
				<circle fill="#AAAAAA" cx="387.8" cy="992.1" r="42.2"/>
				<circle fill="#878787" cx="387.8" cy="992.1" r="19.9"/>
			</g>
			<g>
				<path fill="#878787" d="M230.8,992.1c0-17.9-11.1-33.1-26.8-39.3v-2.9h-15.4c-23.3,0-42.2,18.9-42.2,42.2s18.9,42.2,42.2,42.2
					H204v-2.9C219.7,1025.3,230.8,1010,230.8,992.1z"/>
				<circle fill="#AAAAAA" cx="204" cy="992.1" r="42.2"/>
				<circle fill="#878787" cx="204" cy="992.1" r="19.9"/>
			</g>
			<g>
				<path fill="#F9BFB4" d="M962.9,989c0-0.3-0.6-6.7-7.5-27.3c-3.4-10.2-16.9-29.8-28.9-47.1c-18.8-27.2-28.6-41.9-29.1-52.8
					c-1.2-29.8,5.6-75.5,5.8-77.4c1.1-7.2,7.8-12.2,15.1-11.2c7.2,1.1,12.2,7.8,11.2,15.1c-0.1,0.4-6.6,44.7-5.6,72
					c1.5,6,15.2,26,24.4,39.2c14.2,20.6,27.6,40.1,32.2,53.8c8,23.9,8.8,32.5,8.8,35h-26.5C962.9,988.3,962.9,988.5,962.9,989z"/>
			</g>
			<g>
				<path fill="#FCC7B9" d="M873.7,640.2c-4.1,0-7.5-1.2-10.1-2.6c-17.2-9.3-20-40.2-20.4-53c-0.2-5,3.8-9.2,8.8-9.4
					c5-0.1,9.2,3.8,9.4,8.8c0.7,23.6,6.9,35.4,10.9,37.6c0.5,0.3,2.1,1.1,6.1-1.3c11.6-7.1,27-36.4,33.9-53.3
					c1.9-4.6,7.2-6.8,11.9-4.9c4.6,1.9,6.8,7.2,4.9,11.9c-2.1,5-20.9,49.4-41.2,61.8C882.5,639.1,877.8,640.2,873.7,640.2z"/>
			</g>
			<path fill="#F7B808" d="M933.8,559.9l-3,0.6c-8.1,1.6-15,6.8-18.9,14.1l-5.5,10.4c-6.3,12-6.5,26.4-0.5,38.6l0,0l-10.2,62.8
				c-2,12.2-3.4,24.5-4.3,36.9l0,0h102.8l-22.5-49c-8.4-18.3-10.3-38.9-5.3-58.3l8.8-34.8c2.1-9.8-4.5-19.3-14.3-20.9l-1.3-0.2
				H933.8z"/>
			<path fill="#F4A00B" d="M930.9,554.2l-47.8-3.2c0,0,3.3-74.2,15.4-98.1c9.8-19.6,31.9-33.8,48.1-33.3
				c16.2,0.4,28.7,7.5,34.5,15.8c0,0,19.1-1.6,28.2,24.3c9.1,25.9-3.3,94.7-3.3,94.7H930.9z"/>
			<g>
				<path fill="#093C7A" d="M784.5,970c-1.2-1.1-18-21.4-48.1-53.6c-17.9-19.2-32.5-36.2-43.4-50.7c-15.6-20.6-23.8-36.1-25.9-48.7
					c-10.2-62.1-3.5-126.2-3.2-128.9l41.4,4.5l-20.7-2.2l20.7,2.2c-0.1,0.6-6.4,61.3,2.9,117.7c0.3,1.9,4.5,19.8,58.6,77.8
					c29.1,31.2,45.8,51.3,46.1,51.6L784.5,970z"/>
			</g>
			<path fill="#093C7A" d="M676.5,726.5c0,0,38.4,14.4,85.5-1.1l17.9-34.5c0,0-24.6-9.1-28.9-9.1c-4.3,0-66.6-5.1-66.6-5.1
				s-4.3,0.8-4.3,1.9C680.2,679.7,676.5,726.5,676.5,726.5z"/>
			<g>
				<path fill="#094989" d="M674.8,992.1L636,976.9c0.5-1.2,47.6-121.7,62.1-164.7c13.4-39.7,54.3-121,56-124.4l37.2,18.7
					c-0.4,0.8-41.3,82.1-53.8,119C722.7,869.5,676.8,987.1,674.8,992.1z"/>
			</g>
			<g>
				<path fill="#FBA486" d="M545.4,666.2c-5.6,0-10.6-3.9-11.8-9.6c-1.4-6.5,2.7-13,9.3-14.4c20.7-4.5,78.2-20.4,96-39.8
					c31.3-34.3,43-55.3,44.8-61.7c-0.1,0.2-0.1,0.4-0.1,0.4l23.7,5.3c-0.8,3.8-7.2,25.1-50.5,72.4c-11.5,12.6-33.5,24.4-65.4,35
					c-22.9,7.7-42.5,11.9-43.4,12.1C547.1,666.2,546.2,666.2,545.4,666.2z"/>
			</g>
			<g>
				<path fill="#E69415" d="M679.6,573.7c-1.7,0-3.4-0.3-5-0.9c-7.9-2.8-13.4-12-9.3-19.3c27.8-49.7,59.2-49.1,60.8-49.7l2.2,26.3
					l0.1,0c-1.1,0.4-23.7,2.6-34.5,33.5C691.7,569.8,685.9,573.7,679.6,573.7z"/>
			</g>
			<path fill="#431409" d="M807.9,372.9c0.9-5.6-1.8-11.1-6.7-13.9l-2.9-1.7c-17.9-10.2-38.9-13.6-59.1-9.7h0c-4,0.8-8.1,0.5-12-0.7
				l-13.1-4.3c-1.6-0.5-3,0.9-2.6,2.5h0c3.4,12.4,3.6,25.5,0.4,38l-4.8,18.9c-1.9,7.6-2,15.6-0.1,23.3l0.5,2l0,0l11.1-52.7
				l86.1,18.1l-7.9,37.4l10,0.3l0,0c4.8-9.5,8-19.7,9.6-30.2l1.9-12.3C819.3,381,814.8,374.4,807.9,372.9z"/>
			<path fill="#FBA486" d="M739.1,490.3L739.1,490.3c-23.8-5-39-28.3-34-52.1l13.4-63.6l86.1,18.1l-13.4,63.6
				C786.2,480.1,762.9,495.3,739.1,490.3z"/>
			<circle fill="#FBA486" cx="798.3" cy="440" r="12.8"/>
			<circle fill="#FBA486" cx="708.2" cy="425.8" r="12.8"/>
			<path fill="#431409" d="M718.5,374.6l-11.1,52.7l0,0c4.8-4.8,8.5-10.5,10.8-16.9l9.7-26.9c13.5,6.9,28.4,10.9,43.5,11.8l18.2,1.1
				l-1.8,25.8c-0.5,7.8,1.6,15.5,6,21.9l0,0l10.8-51.4L718.5,374.6z"/>
			<path fill="#F7B808" d="M804.6,578.1c-2.2,13.1-12.9,129.2-12.9,129.2l-129.5-2.2l6.6-104.2c1.9-26.6,10.4-52.3,24.8-74.8v0
				c9-11.2,21.3-19.3,35.1-23l7.8-2.1h23.8c4.1,0,8.1,1.1,11.6,3.3l6.3,3.9c17.9,11.1,28.3,31,27.4,52L804.6,578.1z"/>
			<g>
				<path fill="#FBA486" d="M588.9,666.3c-3,0-6,0-9-0.1c-6.7-0.2-12-5.7-11.8-12.4c0.2-6.6,5.6-11.8,12.1-11.8c0.1,0,0.2,0,0.3,0
					c123.5,2.9,171.6-56.5,172-57.1c4.1-5.3,11.8-6.2,17-2.1c5.3,4.1,6.2,11.8,2.1,17c-0.6,0.7-14.6,18.4-45.5,35.2
					C699.4,649.5,654.4,666.3,588.9,666.3z"/>
			</g>
			<g>
				<path fill="#FBA486" d="M747.2,518.6c-8-0.7-14.1-7.7-13.7-15.8c0.9-17.9,5.3-30.3,5.6-31.6c1.9-8.1,10.1-13.2,18.3-11.2
					c8.1,1.9,13.2,10.1,11.2,18.3l0,0c-1.9,8-2.6,13-4.8,26c-1.4,8.3-7.5,14.8-15.9,14.4C747.7,518.6,747.4,518.6,747.2,518.6z"/>
			</g>
			<path fill="#FCC7B9" d="M935.2,553.3L935.2,553.3c-22.4-4.7-36.8-26.7-32.1-49.2l12.6-60.1l81.3,17.1l-12.6,60.1
				C979.6,543.7,957.6,558,935.2,553.3z"/>
			<circle fill="#FCC7B9" cx="991" cy="505.9" r="12.1"/>
			<circle fill="#FCC7B9" cx="906" cy="492.4" r="12.1"/>
			<g>
				<path fill="#FCC7B9" d="M942.8,580c-7.6-0.7-13.3-7.3-13-14.9c0.8-16.9,5-28.6,5.3-29.8c1.8-7.7,9.6-12.4,17.2-10.6
					c7.7,1.8,12.4,9.6,10.6,17.2l0,0c-1.8,7.5-2.5,12.3-4.6,24.6c-1.3,7.8-7.1,14-15,13.6C943.2,580,943,580,942.8,580z"/>
			</g>
			<rect x="462.2" y="648.9" fill="#B7B7B7" width="173.7" height="19.4"/>
			<g>
				<path fill="#B7B7B7" d="M540.8,941.4c-0.6,0-1.1,0-1.7-0.1c-6.2-0.9-10.5-6.7-9.6-12.9l33-222.8c0.4-2.9,2-5.6,4.4-7.4l62.1-47
					c5-3.8,12.1-2.8,15.9,2.2c3.8,5,2.8,12.1-2.2,15.9l-58.4,44.2L552,931.7C551.2,937.4,546.4,941.4,540.8,941.4z"/>
			</g>
			<g>
				<path fill="#B7B7B7" d="M367,941.4c-0.6,0-1.1,0-1.7-0.1c-6.2-0.9-10.5-6.7-9.6-12.9l33.1-222.8c0.4-2.9,2-5.6,4.4-7.4l62.1-47
					c5-3.8,12.1-2.8,15.9,2.2c3.8,5,2.8,12.1-2.2,15.9l-58.4,44.2l-32.4,218.2C377.4,937.4,372.5,941.4,367,941.4z"/>
			</g>
			<rect x="196.3" y="930" fill="#BCBEC0" width="367.5" height="31.4"/>
			<rect x="125.1" y="930" fill="#B7B7B7" width="71.3" height="31.4"/>
			<path fill="#F4A00B" d="M908,480.5c0,0,25.2-26.3,70.9-23.1l-31.1-18.8l-18.1-2.4c0,0-4.4,1.1-6.9,2.4s-5-1.2-7.5,1.5
				s-7.5,6-7.5,6s-4.2,4.4-4.2,6.8c0,2.4-1.2,7.4,0,8.6S908,480.5,908,480.5z"/>
			<path fill="#F4A00B" d="M982,447.7l-3,9.7c0,0,9.8,12.5,12.1,36.4l12.1-13.5v-22l-7.9-10.6H982z"/>
			<g>
				<path fill="#FCC7B9" d="M1069.6,732.3c-2.1,0-4.2-0.7-5.9-2.1c-1.7-1.4-40.8-34.5-64.8-64.1c-24.9-30.7-35.1-94.4-35.5-97.1
					c-0.8-5,2.6-9.6,7.6-10.4c5-0.8,9.6,2.6,10.4,7.6c0.1,0.8,9.8,61.6,31.6,88.5c22.9,28.2,62,61.3,62.4,61.6
					c3.8,3.2,4.3,9,1.1,12.8C1074.8,731.2,1072.2,732.3,1069.6,732.3z"/>
			</g>
			<g>
				<path fill="#FCC7B9" d="M903,1005.9c-1.1,0-2.2-0.1-3.4-0.4c-7.1-1.9-11.3-9.1-9.5-16.2c0.3-1,25.2-96.2,28.6-113
					c3.7-18.4,34.9-77.2,41.1-88.8c3.5-6.5,11.5-8.9,18-5.4c6.5,3.5,8.9,11.5,5.4,18c-13.7,25.5-36.2,70.2-38.5,81.5
					c-3.5,17.6-27.9,110.6-29,114.6C914.3,1001.9,908.9,1005.9,903,1005.9z"/>
			</g>
			<path fill="#784B3E" d="M636,976.9c0,0-30.8,9.8-51.8,2.4c0,0-8.1-0.3-13.6,7.9c-1,1.5-0.4,3.5,5.1,5.1l78.5,35.3
				c3.8,1.7,8.3-0.2,9.7-4.2l10.9-31.4L636,976.9z"/>
			<path fill="#784B3E" d="M784.4,969.5c0,0-0.2,32.3-13.6,50c0,0-2.7,7.6,3.3,15.4c1.1,1.4,3.2,1.5,6.4-3.2l57.7-63.9
				c2.8-3.1,2.4-8-1-10.5l-26.5-20L784.4,969.5z"/>
			<path fill="#F7B808" d="M892.7,708.8c0,0-9.7,49.8-11.1,91.2c0,0,69.5,5.6,129.2-3c0,0-2.1-49.2-25.1-92.4
				C985.7,704.7,913.7,711.7,892.7,708.8z"/>
			<path fill="#FCC7B9" d="M863.7,1027.3c0,0,14.3-8.3,26.4-37.9l15,8.8l6.4,13.5l-14.6,10.7l-25.5,11.9L863.7,1027.3z"/>
			<path fill="#E69415" d="M770,601.4c-5.9,0-11.6-3-14.8-8.5c-4.7-8.1-2-18.5,6.1-23.3c6.1-3.6,12.7-9.9,13.5-12.9
				c1.6-6,0.2-8.1-5.2-14.3c-1-1.2-2-2.4-3.1-3.7c-5.9-7.4-4.6-18.1,2.7-24c7.4-5.9,18.1-4.6,24,2.7c0.6,0.7,1.3,1.6,2.1,2.5
				c6.6,7.6,18.9,21.8,12.4,45.6c-5,18.5-25.2,31.1-29.2,33.4C775.9,600.7,772.9,601.4,770,601.4z"/>
			<path fill="#E69415" d="M897.3,676.8h75.6l-1.2-2.6c-2.9-6.4-5.1-13.1-6.4-20H901L897.3,676.8z"/>
			<path fill="#E69415" d="M857,1029.2c-1.1-1-0.3-2.8,1.2-2.6c4.4,0.7,11.2,1.4,17,0c9.3-2.3,27.2-15.4,32.9-21.9
				c5.7-6.5,10.1-12.8,10.1-12.8s3.9,8.8,3.9,16.4c0,7.6-20.8,32.5-20.8,32.5l-9.1,0.4l12.2-18.8l-12.5,11.4
				c-4.1,3.7-9.8,5.3-15.2,4.1C870.5,1036.5,862.5,1034,857,1029.2z"/>
			<path fill="#431409" d="M1152.4,720.3c0,0-0.4-29.9,24.8-43.2c25.2-13.3,49.9-1.3,54.9,11.2c0,0,5.1-4.7,14.1,7.5
				c9,12.2,8.8,78-16.3,117.5l-40.4-11.2l-18.4-71l-18.7-2.9L1152.4,720.3z"/>
			<path fill="#431409" d="M1147.5,738c0,0-8.2,40,4.2,68.9l37.8,2.9l-29.5-75.2L1147.5,738z"/>
			<path fill="#FCC7B9" d="M962.9,988.3c0,0,2.6,33.5,0,48.9l13.7-7.5l8.5-12.2l4.4-24.3l-8.5-13.1L962.9,988.3z"/>
			<path fill="#FBA486" d="M1143.1,808.3c-4.6,0-9.6-0.2-15.1-0.7c-35.6-3.1-69.5-30.5-65.1-85.1c0.4-4.8,4.6-8.4,9.4-8
				c4.8,0.4,8.4,4.6,8,9.4c-1.7,21.4,3.1,38.3,14.4,50.2c8.7,9.1,21.3,15,34.8,16.1c24.7,2.1,39-2.1,39.1-2.1
				c4.6-1.4,9.5,1.1,10.9,5.7c1.4,4.6-1.1,9.5-5.7,10.9C1173.2,804.9,1162.3,808.3,1143.1,808.3z"/>
			<path fill="#E69415" d="M959.5,1040.3c-1.5-0.1-1.9-2.1-0.5-2.8c4-2,9.9-5.4,13.8-10c6.2-7.3,13-28.4,13.8-37
				c0.7-8.6,0.7-16.3,0.7-16.3s8.3,4.9,12.8,11c4.5,6.2,2.2,38.5,2.2,38.5l-7.1,5.7l-1.1-22.3l-3.5,16.5c-1.1,5.4-4.9,10-10,12.2
				C974.7,1038.3,966.7,1040.9,959.5,1040.3z"/>
			<path fill="#F7B808" d="M1210.3,791.5l-8.1-2.9h-27.9l0,0c-15.9,2-28.8,14-31.8,29.8l-2.3,41.9c-1.4,24.3-6.7,48.2-15.8,70.8
				l-7.8,19.5l115.6,8.6l-1.4-17.2c-2.2-26.7-2.1-53.6,0.3-80.3l3.1-35.1C1234.7,810.9,1225.1,796.7,1210.3,791.5z"/>
			<path fill="#FFFFFF" d="M738.2,470.6L738.2,470.6c-10.1-2.8-15.9-13.3-13.1-23.3l0.5-1.9l36.5,10.2l-0.5,1.9
				C758.7,467.5,748.2,473.4,738.2,470.6z"/>
			<path fill="#FFFFFF" d="M936.8,538.6L936.8,538.6c-8.5-0.9-14.6-8.6-13.7-17l0.2-1.6l30.7,3.4l-0.2,1.6
				C952.9,533.5,945.3,539.6,936.8,538.6z"/>
			<path fill="#FBA486" d="M1182.1,785.8L1182.1,785.8c-20.1-4.2-33-24-28.8-44.2l9.2-42l73,15.3l-9.2,42
				C1222,777.1,1202.2,790,1182.1,785.8z"/>
			<circle fill="#FBA486" cx="1232.2" cy="743.2" r="10.8"/>
			<circle fill="#FBA486" cx="1155.8" cy="731.1" r="10.8"/>
			<g>
				<path fill="#FBA486" d="M1188.9,809.8c-6.8-0.6-12-6.5-11.6-13.4c0.7-15.2,4.5-25.7,4.8-26.7c1.6-6.9,8.6-11.2,15.5-9.5
					c6.9,1.6,11.2,8.6,9.5,15.5l0,0c-1.6,6.8-2.2,11-4.1,22c-1.2,7-6.4,12.5-13.5,12.2C1189.3,809.8,1189.1,809.8,1188.9,809.8z"/>
			</g>
			<path fill="#FFFFFF" d="M1183.5,772.6L1183.5,772.6c-7.6-0.8-13.1-7.7-12.3-15.3l0.2-1.5l27.6,3l-0.2,1.5
				C1198,768,1191.1,773.5,1183.5,772.6z"/>
			<g>
				<polygon fill="#414042" points="866.7,585 842,588.9 834.8,548.7 859.5,544.8 				"/>
				<polygon fill="#494949" points="846.8,588.2 866.7,585 859.5,544.8 839.6,547.9 				"/>
			</g>
			<g>
				<path fill="#878787" d="M567.6,992.1c0-17.9-11.1-33.1-26.8-39.3v-2.9h-15.4c-23.3,0-42.2,18.9-42.2,42.2s18.9,42.2,42.2,42.2
					h15.4v-2.9C556.5,1025.3,567.6,1010,567.6,992.1z"/>
				<circle fill="#AAAAAA" cx="540.8" cy="992.1" r="42.2"/>
				<circle fill="#878787" cx="540.8" cy="992.1" r="19.9"/>
			</g>
			<path fill="#FCC7B9" d="M848.4,561.1c-2.1-0.3-4.2,0.1-6,1c-2.4,1.1-5.6,3.2-6,6.4c-0.6,5.1,1.3,11.9,5.5,13.7
				c4.2,1.8,10.1-1.5,12.4-6.2C856.4,571.7,856.5,562.4,848.4,561.1z"/>
			<path fill="#FBA486" d="M538.6,644.1c0,0-1.6,1-3.7,3.1c-6.1,6.1-3.1,16.6,5.3,18.4c0.6,0.1,1.2,0.2,1.8,0.3
				c5.3,0.8,10.3-2.3,12.1-7.3c1.4-4,5.3-8.6,15.2-9.7l-13.6-2.7L538.6,644.1z"/>
			<path fill="#FBA486" d="M573.4,644.1c0,0-1.6,1-3.7,3.1c-6.1,6.1-3.1,16.6,5.3,18.4c0.6,0.1,1.2,0.2,1.8,0.3
				c5.3,0.8,10.3-2.3,12.1-7.3c1.4-4,5.3-8.6,15.2-9.7l-13.6-2.7L573.4,644.1z"/>
			<path fill="#431409" d="M1240.9,709.7c-1.4-0.9-16.4-13.8-21.5-15.5c-5.2-1.7-44.2-4.9-44.2-4.9l-10,3.7l-4.6,5.5l-2.6,11l1,6
				c0,0,20.1-1.6,44.6,4.1l5.7-10.1v11.6c7.5,2.1,15.3,4.9,23,8.6l8.7-7.2C1240.9,722.5,1242.3,710.5,1240.9,709.7z"/>
			<path fill="#FBA486" d="M1251.7,910.5c-2.1,0-4.2-0.8-5.9-2.3c-3.5-3.3-3.8-8.8-0.5-12.3c0.3-0.3,26.6-29.6,13.4-53.3
				c-17.8-32-44.5-34.3-44.8-34.4c-4.8-0.4-8.4-4.5-8.1-9.3c0.4-4.8,4.5-8.4,9.3-8.1c1.5,0.1,36.4,3.1,58.7,43.3
				c8.2,14.7,7.9,32.2-0.9,50.8c-6.2,13.2-14.6,22.4-15,22.8C1256.4,909.6,1254.1,910.5,1251.7,910.5z"/>
			<path fill="#E69415" d="M1140.3,857.8l-0.1,2.4c-0.4,7.9-1.3,15.8-2.6,23.6l91.8,6.7c0.2-8.7,0.7-17.4,1.4-26.1L1140.3,857.8z"/>
			<rect x="274.1" y="857.8" fill="#753014" width="240.2" height="72.2"/>
			<rect x="153.7" y="857.8" fill="#813B19" width="120.3" height="72.2"/>
			<path fill="#4F1D0A" d="M515,897.3H153.7c-1.9,0-3.4-1.5-3.4-3.4s1.5-3.4,3.4-3.4H515c1.9,0,3.4,1.5,3.4,3.4
				S516.9,897.3,515,897.3z"/>
			<path fill="#4F1D0A" d="M410.8,923.5h-37.9c-9.6,0-17.4-7.8-17.4-17.4v-10.7c0-2.9,2.4-5.3,5.3-5.3c2.9,0,5.3,2.4,5.3,5.3v10.7
				c0,3.7,3,6.8,6.8,6.8h37.9c3.7,0,6.8-3,6.8-6.8v-10.7c0-2.9,2.4-5.3,5.3-5.3s5.3,2.4,5.3,5.3v10.7
				C428.2,915.7,420.4,923.5,410.8,923.5z"/>
			<rect x="276" y="785.6" fill="#E5A505" width="215.9" height="72.2"/>
			<rect x="167.8" y="785.6" fill="#F7B808" width="108.1" height="72.2"/>
			<path fill="#895F02" d="M492.6,825.1H167.9c-1.9,0-3.4-1.5-3.4-3.4c0-1.9,1.5-3.4,3.4-3.4h324.7c1.9,0,3.4,1.5,3.4,3.4
				C496,823.6,494.5,825.1,492.6,825.1z"/>
			<path fill="#895F02" d="M398.9,852.1h-34c-8.9,0-16.2-7.8-16.2-17.4V824c0-2.9,2.4-5.3,5.3-5.3c2.9,0,5.3,2.4,5.3,5.3v10.7
				c0,3.7,2.5,6.8,5.6,6.8h34c3.1,0,5.6-3,5.6-6.8V824c0-2.9,2.4-5.3,5.3-5.3c2.9,0,5.3,2.4,5.3,5.3v10.7
				C415.1,844.3,407.8,852.1,398.9,852.1z"/>
			<rect x="283.7" y="714.5" fill="#D17B09" width="185.4" height="72.2"/>
			<rect x="190.8" y="714.5" fill="#E69415" width="92.8" height="72.2"/>
			<path fill="#7F4500" d="M469.6,754H190.9c-1.9,0-3.4-1.5-3.4-3.4c0-1.9,1.5-3.4,3.4-3.4h278.8c1.9,0,3.4,1.5,3.4,3.4
				C473,752.5,471.5,754,469.6,754z"/>
			<path fill="#7F4500" d="M389.2,781H360c-8.1,0-14.6-7.8-14.6-17.4v-10.7c0-2.9,2.4-5.3,5.3-5.3c2.9,0,5.3,2.4,5.3,5.3v10.7
				c0,3.9,2.1,6.8,4,6.8h29.2c1.9,0,4-2.9,4-6.8v-10.7c0-2.9,2.4-5.3,5.3-5.3c2.9,0,5.3,2.4,5.3,5.3v10.7
				C403.9,773.2,397.3,781,389.2,781z"/>
		</g>
	</g>
</g>
</svg>
